<svg xmlns="http://www.w3.org/2000/svg" xmlns:xlink="http://www.w3.org/1999/xlink" width="500" zoomAndPan="magnify" viewBox="0 0 375 374.999991" height="500" preserveAspectRatio="xMidYMid meet" version="1.0"><defs><g/><clipPath id="72398ee685"><path d="M 63.421875 103.15625 L 180 103.15625 L 180 253 L 63.421875 253 Z M 63.421875 103.15625 " clip-rule="nonzero"/></clipPath><clipPath id="9c3eb0f296"><path d="M 195 103.15625 L 311.671875 103.15625 L 311.671875 253 L 195 253 Z M 195 103.15625 " clip-rule="nonzero"/></clipPath><clipPath id="958a084b1f"><path d="M 142 121.660156 L 233.722656 121.660156 L 233.722656 234.910156 L 142 234.910156 Z M 142 121.660156 " clip-rule="nonzero"/></clipPath></defs><g clip-path="url(#72398ee685)"><path fill="#ffffff" d="M 179.367188 246.472656 C 178.929688 243.976562 176.933594 241.84375 173.890625 240.628906 C 168.148438 238.335938 161 235.480469 154.949219 226.324219 C 150.988281 220.335938 150.410156 213.195312 150.027344 208.46875 C 149.816406 205.894531 149.664062 204.035156 149.097656 203.027344 C 148.480469 201.925781 146.988281 200.394531 145.097656 198.453125 C 142.136719 195.40625 138.078125 191.234375 135.289062 186.476562 C 130.824219 178.859375 127.542969 167.902344 127.507812 167.789062 L 127.101562 166.410156 L 126.632812 167.773438 C 126.578125 167.933594 125.792969 170.304688 125.792969 174.28125 C 125.792969 176.996094 126.160156 180.464844 127.375 184.484375 C 127.492188 184.863281 127.621094 185.242188 127.757812 185.621094 C 125.785156 182.8125 123.023438 178.0625 121.535156 171.835938 C 119.054688 161.480469 120.265625 152.90625 120.277344 152.820312 L 120.40625 151.921875 L 119.605469 152.347656 C 119.574219 152.367188 118.390625 153.011719 116.90625 154.367188 C 117.804688 149.191406 116.992188 143.597656 115.980469 136.660156 C 115.601562 134.0625 115.210938 131.378906 114.871094 128.457031 C 113.597656 117.496094 115.46875 114.429688 115.488281 114.398438 L 115.960938 113.664062 L 115.089844 113.6875 C 114.84375 113.695312 109.039062 113.976562 105.867188 123.308594 C 103.828125 129.308594 103.265625 136.695312 103.121094 141.074219 C 102.453125 137.914062 101.867188 134.089844 101.355469 128.808594 C 100.0625 115.484375 104.890625 104.679688 104.9375 104.570312 L 105.566406 103.195312 L 104.277344 103.992188 C 104.132812 104.082031 89.574219 113.234375 88.242188 127.203125 C 87.335938 136.753906 88.988281 144.765625 90.113281 148.855469 C 88.800781 146.917969 87.628906 145.09375 86.75 143.460938 C 82.632812 135.800781 80.832031 126.621094 80.8125 126.527344 L 80.523438 125.035156 L 79.9375 126.4375 C 79.890625 126.542969 75.425781 137.402344 78.1875 150.152344 C 80.296875 159.902344 84.425781 167.019531 86.261719 169.84375 C 83.023438 168.058594 79.679688 166.46875 76.703125 165.53125 C 69.957031 163.394531 65.710938 160.503906 65.667969 160.476562 L 64.65625 159.78125 L 64.960938 160.96875 C 65.097656 161.507812 68.414062 174.277344 75.902344 181.355469 C 79.5625 184.8125 84.492188 187.898438 88.585938 190.152344 C 84.632812 189.019531 81.117188 188.5 78.066406 188.050781 C 76.164062 187.769531 74.515625 187.527344 73.046875 187.179688 C 67.863281 185.953125 63.421875 183.375 63.421875 183.375 C 63.476562 183.46875 69.257812 193.367188 77.953125 198.140625 C 82.738281 200.769531 87.46875 202.992188 90.742188 204.453125 C 81.121094 202.722656 69.726562 203.300781 69.292969 203.3125 C 69.964844 203.394531 72.175781 204.683594 74.34375 206.214844 C 75.402344 206.960938 76.488281 207.878906 77.640625 208.847656 C 80.652344 211.390625 84.40625 214.554688 89.988281 216.5 C 91.964844 217.1875 93.808594 217.671875 95.464844 218.019531 C 84.371094 218.121094 79.449219 213.980469 79.398438 213.9375 L 78.40625 213.078125 L 78.644531 214.367188 C 78.6875 214.605469 79.851562 220.234375 91.039062 225.445312 C 96.054688 227.777344 100.332031 228.808594 103.550781 229.230469 C 102.714844 229.300781 101.859375 229.355469 100.878906 229.394531 C 96.636719 229.554688 93.328125 228.03125 93.304688 228.015625 C 93.304688 228.015625 100.804688 235.992188 112.222656 237.546875 C 116.023438 238.0625 118.863281 238.199219 120.964844 238.144531 C 120.902344 238.164062 120.839844 238.183594 120.773438 238.207031 C 115.742188 239.820312 112.253906 242.648438 112.109375 242.769531 L 111.183594 243.523438 L 112.378906 243.582031 C 112.4375 243.585938 118.363281 243.882812 125.503906 244.957031 C 128.375 245.390625 130.453125 245.445312 131.933594 245.351562 C 129.351562 246.855469 127.671875 248.167969 127.53125 248.277344 L 126.742188 248.902344 L 127.730469 249.089844 C 127.789062 249.101562 133.839844 250.246094 140.152344 249.902344 C 143.820312 249.703125 146.375 249.070312 147.910156 248.554688 C 147.378906 249.25 147.113281 249.746094 147.082031 249.804688 L 146.480469 250.96875 L 147.675781 250.4375 C 147.6875 250.433594 148.800781 249.949219 150.917969 249.789062 C 152.097656 249.695312 152.734375 249.734375 154.132812 249.820312 C 155.28125 249.890625 157.023438 249.996094 160.015625 250.074219 C 164.792969 250.203125 167.714844 248.855469 169.019531 248.054688 C 169.109375 249.84375 170.269531 251.449219 172.109375 252.269531 C 174.0625 253.144531 176.175781 252.882812 177.628906 251.585938 C 179.058594 250.3125 179.707031 248.402344 179.367188 246.472656 Z M 179.367188 246.472656 " fill-opacity="1" fill-rule="nonzero"/><path fill="#000000" d="M 179.367188 246.472656 C 178.929688 243.976562 176.933594 241.84375 173.890625 240.628906 C 168.148438 238.335938 161 235.480469 154.949219 226.324219 C 150.988281 220.335938 150.410156 213.195312 150.027344 208.46875 C 149.816406 205.894531 149.664062 204.035156 149.097656 203.027344 C 148.480469 201.925781 146.988281 200.394531 145.097656 198.453125 C 142.136719 195.40625 138.078125 191.234375 135.289062 186.476562 C 130.824219 178.859375 127.542969 167.898438 127.507812 167.789062 L 127.101562 166.410156 L 126.632812 167.773438 C 126.578125 167.933594 125.792969 170.304688 125.792969 174.28125 C 125.792969 176.996094 126.160156 180.464844 127.375 184.484375 C 127.492188 184.863281 127.621094 185.242188 127.757812 185.621094 C 125.785156 182.8125 123.023438 178.0625 121.535156 171.835938 C 119.054688 161.480469 120.265625 152.90625 120.277344 152.820312 L 120.40625 151.921875 L 119.605469 152.347656 C 119.574219 152.367188 118.390625 153.011719 116.90625 154.367188 C 117.804688 149.191406 116.992188 143.597656 115.980469 136.660156 C 115.601562 134.0625 115.210938 131.378906 114.871094 128.457031 C 113.597656 117.496094 115.46875 114.429688 115.488281 114.398438 L 115.960938 113.664062 L 115.089844 113.6875 C 114.84375 113.695312 109.039062 113.976562 105.867188 123.308594 C 103.828125 129.308594 103.265625 136.695312 103.121094 141.074219 C 102.453125 137.914062 101.867188 134.089844 101.355469 128.808594 C 100.0625 115.484375 104.890625 104.679688 104.9375 104.570312 L 105.566406 103.195312 L 104.277344 103.992188 C 104.132812 104.082031 89.574219 113.234375 88.242188 127.203125 C 87.335938 136.753906 88.988281 144.765625 90.113281 148.855469 C 88.800781 146.917969 87.628906 145.09375 86.75 143.460938 C 82.632812 135.800781 80.832031 126.617188 80.8125 126.527344 L 80.523438 125.035156 L 79.9375 126.4375 C 79.890625 126.542969 75.425781 137.402344 78.1875 150.152344 C 80.296875 159.902344 84.425781 167.019531 86.265625 169.84375 C 83.023438 168.058594 79.679688 166.46875 76.703125 165.53125 C 69.957031 163.394531 65.710938 160.503906 65.667969 160.476562 L 64.65625 159.78125 L 64.960938 160.96875 C 65.097656 161.507812 68.414062 174.277344 75.902344 181.355469 C 79.5625 184.8125 84.492188 187.898438 88.585938 190.152344 C 84.632812 189.019531 81.117188 188.5 78.066406 188.050781 C 76.160156 187.769531 74.519531 187.527344 73.046875 187.179688 C 67.863281 185.953125 63.421875 183.375 63.421875 183.375 C 63.476562 183.46875 69.257812 193.367188 77.953125 198.140625 C 82.738281 200.769531 87.46875 202.992188 90.742188 204.453125 C 81.121094 202.722656 69.726562 203.300781 69.292969 203.3125 C 69.964844 203.394531 72.175781 204.683594 74.34375 206.214844 C 75.402344 206.960938 76.488281 207.878906 77.640625 208.847656 C 80.652344 211.390625 84.40625 214.554688 89.988281 216.5 C 91.964844 217.1875 93.808594 217.671875 95.464844 218.019531 C 84.371094 218.121094 79.449219 213.980469 79.398438 213.9375 L 78.40625 213.078125 L 78.644531 214.367188 C 78.6875 214.605469 79.851562 220.234375 91.039062 225.445312 C 96.054688 227.777344 100.332031 228.808594 103.550781 229.230469 C 102.714844 229.300781 101.859375 229.355469 100.878906 229.394531 C 96.636719 229.554688 93.328125 228.03125 93.304688 228.015625 C 93.304688 228.015625 100.804688 235.992188 112.222656 237.546875 C 116.023438 238.066406 118.863281 238.199219 120.964844 238.144531 C 120.902344 238.164062 120.839844 238.183594 120.773438 238.207031 C 115.742188 239.820312 112.253906 242.648438 112.109375 242.769531 L 111.183594 243.523438 L 112.378906 243.582031 C 112.4375 243.585938 118.363281 243.882812 125.503906 244.957031 C 128.375 245.390625 130.453125 245.445312 131.933594 245.351562 C 129.351562 246.855469 127.671875 248.167969 127.53125 248.277344 L 126.742188 248.902344 L 127.730469 249.089844 C 127.789062 249.101562 133.839844 250.246094 140.152344 249.902344 C 143.820312 249.703125 146.375 249.070312 147.910156 248.554688 C 147.378906 249.25 147.113281 249.742188 147.082031 249.804688 L 146.480469 250.96875 L 147.675781 250.4375 C 147.6875 250.433594 148.800781 249.949219 150.917969 249.789062 C 152.097656 249.695312 152.734375 249.734375 154.132812 249.820312 C 155.28125 249.890625 157.023438 249.996094 160.015625 250.074219 C 164.792969 250.203125 167.714844 248.855469 169.019531 248.054688 C 169.109375 249.84375 170.269531 251.449219 172.109375 252.269531 C 174.0625 253.144531 176.175781 252.882812 177.628906 251.585938 C 179.058594 250.3125 179.707031 248.402344 179.367188 246.472656 Z M 119.257812 153.65625 C 119.167969 154.617188 119.050781 156.25 119.050781 158.375 C 119.050781 161.894531 119.371094 166.742188 120.640625 172.050781 C 122.960938 181.738281 128.300781 187.960938 129.226562 188.980469 C 130.734375 191.964844 132.710938 194.875 134.660156 197.472656 C 133.332031 196.375 132.011719 195.378906 130.890625 194.5625 C 130.101562 193.664062 127.882812 191.089844 125.785156 188.269531 C 123.484375 185.191406 121.316406 181.996094 120.050781 179.640625 C 120.050781 179.640625 121.546875 184.378906 125.046875 188.820312 C 126.125 190.1875 127.199219 191.519531 128.109375 192.628906 C 127.941406 192.519531 127.84375 192.453125 127.835938 192.449219 L 126.835938 191.804688 L 127.140625 192.953125 C 127.167969 193.050781 127.578125 194.566406 128.417969 196.707031 C 121.816406 190.546875 111.867188 176.636719 111.867188 167.578125 C 111.867188 167.371094 111.875 167.167969 111.882812 166.96875 C 112.285156 159.214844 117.300781 155.011719 119.257812 153.65625 Z M 139.121094 205.980469 L 142.351562 209.113281 C 142.410156 209.429688 142.46875 209.765625 142.535156 210.125 C 141.753906 209.3125 140.53125 208.214844 138.828125 207.1875 C 137.957031 206.660156 136.8125 206.257812 135.609375 205.949219 C 134.761719 205.222656 132.402344 203.03125 130.875 199.984375 C 129.648438 197.539062 128.835938 195.269531 128.402344 193.9375 C 128.902344 194.277344 129.554688 194.730469 130.292969 195.265625 C 130.421875 195.417969 130.5 195.511719 130.503906 195.515625 L 130.5625 195.464844 C 132.925781 197.183594 136.089844 199.679688 138.328125 202.144531 L 138.335938 202.140625 C 138.390625 202.207031 138.445312 202.28125 138.503906 202.347656 C 140.265625 204.527344 141.789062 206.40625 141.980469 207.160156 L 142.074219 207.652344 L 139.457031 205.347656 C 137.746094 203.796875 136.460938 202.550781 135.636719 201.640625 C 135.636719 201.640625 137.386719 204.410156 139.121094 205.980469 Z M 141.242188 212.917969 C 142.230469 213.738281 143.164062 214.597656 143.566406 214.972656 C 143.746094 215.691406 143.945312 216.433594 144.167969 217.195312 C 142.949219 216.414062 141.246094 215.796875 139.621094 215.308594 C 139.207031 215.050781 138.230469 214.375 137.117188 213.128906 L 137.128906 213.105469 L 137.066406 213.070312 C 136.46875 212.394531 135.835938 211.558594 135.230469 210.527344 C 134.398438 209.105469 133.449219 208 132.578125 207.152344 L 132.582031 207.132812 C 132.582031 207.132812 132.5625 207.125 132.53125 207.113281 C 132.074219 206.671875 131.632812 206.296875 131.242188 205.996094 C 133.234375 206.246094 136.414062 206.800781 138.355469 207.972656 C 140.957031 209.546875 142.507812 211.402344 142.863281 211.851562 C 142.976562 212.398438 143.097656 212.96875 143.230469 213.566406 C 142.808594 213.222656 142.277344 212.796875 141.679688 212.332031 C 139.484375 210.613281 137.21875 209.773438 137.21875 209.773438 C 138.085938 210.347656 140.007812 211.894531 141.242188 212.917969 Z M 144.222656 221.417969 C 144.949219 221.769531 145.539062 221.980469 145.871094 222.085938 C 146.113281 222.675781 146.371094 223.269531 146.648438 223.863281 C 145.703125 223.402344 144.246094 222.804688 142.167969 222.226562 C 142.097656 222.210938 142.035156 222.199219 141.96875 222.179688 L 141.976562 222.164062 C 141.949219 222.15625 139.355469 221.148438 136.417969 217.519531 C 135.332031 216.175781 134.585938 215.117188 134.066406 214.308594 C 134.664062 214.695312 135.378906 215.066406 136.207031 215.300781 L 137.097656 215.546875 C 139.335938 216.15625 143.199219 217.316406 144.636719 218.710938 C 144.898438 219.523438 145.191406 220.351562 145.515625 221.191406 C 145.242188 221.128906 144.929688 221.03125 144.585938 220.863281 C 143.871094 220.511719 141.765625 219.511719 141.765625 219.511719 C 142.417969 220.011719 143.457031 221.039062 144.222656 221.417969 Z M 147.488281 228.027344 C 148.464844 228.53125 149.246094 228.855469 149.554688 228.980469 C 150.082031 229.742188 150.644531 230.480469 151.25 231.195312 C 150.414062 230.96875 149.304688 230.726562 148.0625 230.605469 L 148.066406 230.570312 C 146.101562 230.226562 144.320312 228.511719 142.433594 226.691406 L 140.898438 225.242188 C 139.472656 223.949219 138.152344 223.339844 137.210938 223.039062 C 138.15625 222.726562 139.710938 222.5 141.921875 223.113281 C 145.207031 224.027344 146.871094 224.988281 147.355469 225.304688 C 147.800781 226.160156 148.28125 227.007812 148.804688 227.835938 C 148.480469 227.722656 148.125 227.578125 147.75 227.382812 C 146.917969 226.953125 145.878906 226.40625 144.730469 226.089844 C 144.730469 226.089844 146.621094 227.578125 147.488281 228.027344 Z M 153.527344 235.195312 C 155.03125 235.589844 156.285156 235.949219 156.300781 235.953125 L 156.308594 235.914062 C 157.453125 236.777344 158.605469 237.546875 159.746094 238.230469 C 159.300781 238.265625 158.851562 238.347656 158.402344 238.453125 C 155.730469 238.546875 150.027344 237.007812 147.984375 234.738281 C 146.585938 233.183594 145.027344 232.113281 143.925781 231.464844 C 144.855469 231.414062 146.121094 231.386719 147.496094 231.480469 C 150.175781 231.660156 152.390625 232.515625 152.488281 232.554688 C 152.554688 232.625 152.617188 232.695312 152.683594 232.761719 C 153.367188 233.449219 154.066406 234.085938 154.769531 234.683594 C 154.398438 234.597656 153.996094 234.5 153.585938 234.394531 C 152.453125 234.097656 150.449219 233.847656 149.875 233.585938 C 149.875 233.585938 152.347656 234.886719 153.527344 235.195312 Z M 165.089844 242.117188 C 165.886719 241.964844 166.542969 241.84375 166.921875 241.773438 C 167.316406 241.945312 167.703125 242.105469 168.074219 242.261719 C 169.292969 242.777344 170.394531 243.238281 171.296875 243.691406 C 170.113281 244.222656 167.945312 244.992188 165.726562 244.699219 C 163.128906 244.355469 161.039062 243.5 159.015625 242.671875 L 157.046875 241.890625 C 155.875 241.449219 154.894531 241.289062 154.125 241.246094 C 155.917969 240.148438 159.078125 238.574219 161.550781 239.277344 L 161.558594 239.253906 C 162.992188 240.019531 164.382812 240.667969 165.6875 241.242188 C 165.480469 241.292969 165.253906 241.339844 165.011719 241.382812 C 163.972656 241.554688 161.925781 241.859375 160.863281 241.832031 C 160.863281 241.832031 162.859375 242.550781 165.089844 242.117188 Z M 120.660156 219.390625 C 120.519531 219.328125 120.378906 219.269531 120.238281 219.207031 C 112.585938 215.816406 108.4375 209.488281 106.742188 206.300781 C 107.578125 206.808594 108.789062 207.402344 110.574219 208.050781 C 112.757812 208.847656 114.753906 209.203125 116.683594 209.546875 C 119.128906 209.980469 121.4375 210.390625 123.929688 211.648438 C 127.320312 213.363281 130.777344 214.757812 133.929688 215.601562 C 134.371094 216.332031 134.949219 217.164062 135.703125 218.097656 C 136.4375 219.007812 137.152344 219.753906 137.816406 220.375 C 136.496094 220.121094 134.566406 219.722656 132.246094 219.089844 C 128.882812 218.175781 125.140625 217.042969 122.007812 215.890625 C 122.007812 215.890625 126.867188 218.5625 132.003906 219.976562 C 134.925781 220.78125 137.257812 221.207031 138.511719 221.441406 L 139.257812 221.589844 C 139.363281 221.671875 139.464844 221.746094 139.566406 221.820312 C 136.960938 221.738281 135.613281 222.792969 135.539062 222.851562 L 135.449219 222.925781 C 133.683594 223.023438 128.730469 222.878906 120.75 219.429688 L 120.753906 219.414062 C 120.722656 219.40625 120.691406 219.398438 120.660156 219.390625 Z M 105.375 180.742188 C 104.351562 177.765625 103.730469 174.488281 103.359375 171.566406 L 103.363281 171.5625 C 103.359375 171.5625 103.359375 171.558594 103.359375 171.554688 C 103.128906 169.742188 102.988281 168.058594 102.910156 166.6875 C 102.910156 166.6875 102.660156 161.980469 102.570312 160.292969 C 103.484375 161.203125 105.039062 162.777344 106.773438 164.617188 C 109.183594 167.175781 111.082031 170.761719 111.457031 171.488281 C 113.757812 181.273438 123.4375 193.898438 129.226562 198.648438 C 129.480469 199.214844 129.75 199.796875 130.050781 200.394531 C 130.75 201.789062 131.527344 202.9375 132.25 203.851562 C 130.59375 202.75 128.285156 201.152344 125.882812 199.289062 C 121.675781 196.023438 118.5625 193.03125 116.625 190.398438 C 116.625 190.398438 119.535156 195.667969 125.320312 200.011719 C 128.46875 202.378906 131.414062 204.371094 133.011719 205.425781 C 131.0625 205.117188 129.363281 205.011719 128.839844 204.984375 C 127.792969 204.269531 126.558594 203.339844 125.183594 202.160156 C 122.300781 199.679688 119.410156 197.308594 116.203125 195.472656 L 116.28125 195.390625 C 116.238281 195.355469 112.234375 191.617188 108.222656 186.371094 C 107.066406 184.859375 106.164062 182.972656 105.445312 180.9375 L 105.472656 180.929688 C 105.46875 180.914062 105.4375 180.855469 105.375 180.742188 Z M 124.582031 202.855469 C 128.617188 206.324219 131.421875 207.636719 132.097656 207.925781 C 132.917969 208.796875 133.757812 209.832031 134.4375 210.992188 C 134.636719 211.332031 134.835938 211.644531 135.039062 211.941406 L 129.351562 208.773438 L 120.222656 203.855469 L 128.90625 209.578125 L 136.5 213.808594 C 136.800781 214.136719 137.09375 214.421875 137.363281 214.667969 C 137.355469 214.664062 137.351562 214.664062 137.34375 214.660156 L 136.457031 214.414062 C 134.328125 213.8125 132.488281 212.144531 132.476562 212.128906 C 132.476562 212.128906 132.53125 212.949219 133.296875 214.472656 C 130.4375 213.628906 127.359375 212.359375 124.339844 210.832031 L 124.34375 210.828125 C 124.28125 210.796875 124.21875 210.773438 124.15625 210.742188 C 117.4375 207.324219 111.03125 202.65625 107.996094 198.613281 C 105.316406 195.042969 103.484375 193.078125 102.394531 192.035156 C 104.035156 192.300781 106.855469 192.84375 110.253906 193.871094 C 115.769531 195.535156 120.179688 199.070312 124.582031 202.855469 Z M 129.582031 223.292969 C 133.933594 224.195312 136.195312 223.789062 136.359375 223.753906 C 137.132812 223.925781 138.636719 224.433594 140.277344 225.921875 L 141.046875 226.648438 C 140.066406 226.476562 138.699219 226.246094 137.136719 226.003906 C 135.007812 225.675781 130.75 225.660156 130.75 225.660156 C 132.476562 226.003906 135.0625 226.394531 137.144531 226.714844 C 139.777344 227.121094 141.78125 227.664062 142.25 227.792969 C 143.003906 228.515625 143.75 229.207031 144.503906 229.796875 C 143.347656 229.804688 141.636719 229.914062 139.550781 230.316406 L 139.550781 230.3125 C 139.515625 230.320312 135.425781 231.117188 130.351562 229.027344 C 126.492188 227.433594 125.527344 226.886719 124.507812 226.308594 L 123.195312 225.59375 C 122.359375 225.164062 121.460938 224.960938 120.660156 224.859375 C 122.765625 224.105469 126.222656 223.121094 129.582031 223.292969 Z M 137.714844 231.675781 C 138.855469 231.375 139.917969 231.164062 140.878906 231.023438 L 142.128906 231.558594 C 142.148438 231.566406 143.453125 232.136719 144.996094 233.277344 C 144.15625 233.277344 143.019531 233.289062 141.773438 233.347656 C 139.195312 233.464844 137.539062 234.140625 135.898438 234.535156 C 135.898438 234.535156 139.1875 234.132812 141.710938 234.019531 C 143.671875 233.929688 145.414062 234.097656 146.109375 234.179688 C 146.511719 234.535156 146.914062 234.921875 147.300781 235.351562 C 147.5625 235.640625 147.875 235.917969 148.21875 236.183594 C 147.132812 236.292969 145.449219 236.566406 143.25 237.226562 C 141.796875 237.113281 137.375 236.710938 135.582031 235.976562 C 134.167969 235.398438 132.296875 235.453125 130.988281 235.597656 C 130.941406 235.597656 130.902344 235.597656 130.855469 235.597656 C 132.089844 234.429688 134.476562 232.53125 137.714844 231.675781 Z M 149.503906 237.03125 C 151.0625 237.917969 152.964844 238.585938 154.710938 238.96875 C 154.183594 239.042969 153.589844 239.117188 152.964844 239.1875 C 151.089844 239.386719 148.785156 240.019531 147.660156 240.195312 C 147.660156 240.195312 151.21875 240.144531 153.15625 239.933594 C 153.84375 239.863281 154.492188 239.796875 155.046875 239.738281 C 153.09375 240.722656 151.625 241.832031 151.515625 241.917969 C 151.515625 241.917969 154.167969 241.792969 156.722656 242.75 L 157.402344 243.019531 C 151.585938 243.046875 146.160156 241.785156 144.5 241.355469 C 141.90625 240.691406 140.132812 240.574219 139.222656 240.574219 C 139.546875 240.019531 140.441406 239.085938 142.96875 238.277344 C 146.703125 237.082031 149.039062 237.03125 149.503906 237.03125 Z M 106.738281 123.601562 C 109.054688 116.789062 112.75 115.140625 114.34375 114.742188 C 113.988281 115.761719 113.503906 117.808594 113.503906 121.539062 C 113.503906 123.425781 113.628906 125.742188 113.957031 128.5625 C 114.296875 131.5 114.691406 134.191406 115.070312 136.792969 C 115.773438 141.59375 116.378906 145.742188 116.378906 149.527344 C 116.378906 151.464844 116.179688 153.644531 115.789062 155.476562 C 114.78125 156.5625 113.734375 157.945312 112.871094 159.644531 C 112.96875 157.222656 112.941406 153.257812 112.222656 148.4375 C 111.035156 140.46875 110.160156 135.34375 110.160156 135.34375 C 110.15625 135.394531 110.113281 140.527344 111.3125 148.570312 C 112.257812 154.90625 112.007812 160.179688 111.863281 162.078125 C 111.386719 163.519531 111.054688 165.128906 110.964844 166.921875 C 110.929688 167.585938 110.953125 168.28125 111.027344 169 C 110.875 168.730469 110.710938 168.449219 110.53125 168.152344 C 110.332031 167.175781 109.058594 161.171875 106.859375 154.054688 L 105.824219 150.792969 C 105.171875 148.75 104.5625 146.859375 104 144.761719 C 104 144.644531 103.992188 144.308594 103.992188 143.785156 C 103.992188 140.660156 104.214844 131.03125 106.738281 123.601562 Z M 88.902344 132.792969 C 88.902344 131.035156 88.976562 129.191406 89.160156 127.289062 C 90.21875 116.136719 100.050781 108.125 103.53125 105.617188 C 102.453125 108.507812 100.214844 115.550781 100.214844 124.214844 C 100.214844 125.734375 100.28125 127.296875 100.4375 128.898438 C 101.570312 140.550781 103.0625 145.195312 104.949219 151.074219 L 105.980469 154.328125 C 107.558594 159.429688 108.574219 163.675781 109.085938 165.976562 C 108.582031 165.296875 108.035156 164.613281 107.445312 163.988281 C 104.707031 161.082031 102.390625 158.824219 102.367188 158.800781 L 101.523438 157.980469 L 101.613281 159.625 C 100.914062 157.058594 99.945312 153.167969 99.046875 148.417969 C 97.40625 139.699219 95.605469 127.449219 95.605469 127.449219 C 95.613281 127.574219 96.488281 139.816406 98.144531 148.589844 C 99.511719 155.835938 101.246094 161.726562 101.824219 163.59375 L 101.992188 166.742188 C 102.003906 167.015625 102.027344 167.308594 102.046875 167.601562 C 100.078125 163.089844 96.519531 158.019531 93.042969 153.074219 C 92.652344 152.515625 92.265625 151.964844 91.882812 151.417969 C 91.742188 151.042969 88.902344 143.414062 88.902344 132.792969 Z M 79.085938 149.957031 C 78.449219 147.015625 78.207031 144.175781 78.207031 141.554688 C 78.207031 135.492188 79.503906 130.609375 80.257812 128.277344 C 80.964844 131.273438 82.78125 138.015625 85.9375 143.894531 C 87.460938 146.726562 89.808594 150.066406 92.289062 153.601562 C 96.5625 159.679688 101.398438 166.566406 102.453125 171.734375 C 102.710938 173.714844 103.078125 175.851562 103.605469 177.960938 C 102.46875 176.269531 100.699219 173.726562 97.992188 170.007812 L 86.140625 153.058594 L 97.246094 170.546875 C 102.46875 177.710938 104.167969 180.484375 104.527344 181.09375 C 104.824219 181.957031 105.15625 182.800781 105.527344 183.601562 C 103.820312 181.996094 101.328125 179.785156 98.46875 177.664062 C 96.109375 175.914062 92.386719 173.378906 88.316406 171.007812 C 87.5 169.898438 81.613281 161.628906 79.085938 149.957031 Z M 76.535156 180.6875 C 70.507812 174.988281 67.175781 165.1875 66.179688 161.882812 C 67.832031 162.875 71.40625 164.820312 76.425781 166.40625 C 83.730469 168.71875 93.375 175.035156 97.917969 178.402344 C 103.171875 182.292969 107.195312 186.523438 107.234375 186.5625 L 107.238281 186.5625 C 107.320312 186.683594 107.402344 186.8125 107.492188 186.929688 C 109.871094 190.046875 112.25 192.628906 113.820312 194.246094 C 112.761719 193.761719 111.667969 193.335938 110.519531 192.988281 C 108.882812 192.496094 107.273438 192.082031 105.816406 191.742188 C 105.257812 191.09375 103.199219 189.007812 95.667969 182.792969 C 86.101562 174.894531 79.890625 172.960938 79.632812 172.882812 C 79.632812 172.882812 85.675781 175.738281 95.082031 183.5 C 100.441406 187.925781 102.988281 190.222656 104.1875 191.378906 C 101.59375 190.824219 99.796875 190.558594 99.773438 190.558594 C 99.773438 190.558594 102.738281 193.144531 107.257812 199.164062 C 107.347656 199.28125 107.445312 199.402344 107.539062 199.519531 C 104.835938 197.628906 101.105469 195.300781 96.574219 193.164062 L 96.589844 193.121094 C 96.464844 193.066406 83.867188 187.613281 76.535156 180.6875 Z M 78.398438 197.335938 C 72.191406 193.929688 67.558594 188.078125 65.492188 185.152344 C 67.105469 186.078125 69.65625 187.324219 72.835938 188.074219 C 74.34375 188.429688 76.007812 188.675781 77.933594 188.960938 C 82.804688 189.679688 88.867188 190.574219 95.984375 193.902344 C 102.898438 197.136719 107.917969 200.648438 110.285156 202.445312 C 112.738281 204.726562 115.914062 207.046875 119.367188 209.125 C 118.53125 208.941406 117.699219 208.792969 116.84375 208.640625 C 115.539062 208.40625 114.199219 208.164062 112.800781 207.789062 C 112.28125 207.378906 108.582031 204.554688 100.074219 200.144531 C 91.027344 195.457031 82.3125 194.21875 82.230469 194.203125 C 82.230469 194.203125 90.738281 196.339844 99.648438 200.960938 C 104.375 203.410156 107.625 205.382812 109.648438 206.707031 C 106.070312 205.242188 104.496094 203.867188 104.492188 203.855469 C 104.492188 203.855469 105.613281 206.65625 108.058594 210.0625 C 105.855469 208.898438 101.621094 206.976562 95.339844 205.433594 C 94.429688 205.058594 86.492188 201.777344 78.398438 197.335938 Z M 90.292969 215.628906 C 84.871094 213.742188 81.34375 210.769531 78.234375 208.144531 C 77.070312 207.164062 75.96875 206.234375 74.875 205.460938 C 73.992188 204.839844 73.238281 204.394531 72.589844 204.070312 C 76.316406 203.914062 83.054688 203.941406 90.976562 205.429688 C 101.839844 207.464844 108.371094 211.273438 109.558594 212.003906 C 110.257812 212.851562 111.035156 213.707031 111.894531 214.542969 C 110.308594 214.023438 107.660156 213.207031 104.472656 212.410156 C 99.925781 211.277344 92.015625 210.65625 92.015625 210.65625 C 95.609375 211.285156 99.726562 212.175781 104.25 213.304688 C 108.722656 214.417969 112.21875 215.425781 113.128906 215.691406 C 114.289062 216.710938 115.574219 217.679688 116.996094 218.546875 C 112.542969 217.746094 108.117188 217.773438 101.9375 217.898438 C 99.757812 217.824219 95.4375 217.421875 90.292969 215.628906 Z M 91.429688 224.609375 C 83.929688 221.117188 81.121094 217.441406 80.101562 215.53125 C 82.273438 216.832031 87.25 219.0625 95.726562 218.9375 L 100.605469 218.84375 C 101.011719 218.835938 101.410156 218.828125 101.804688 218.820312 C 102.832031 218.859375 103.4375 218.824219 103.511719 218.820312 L 103.511719 218.789062 C 110.382812 218.667969 115.042969 218.765625 120.355469 220.261719 C 122.847656 221.339844 125.050781 222.109375 126.964844 222.648438 C 125.90625 222.75 124.867188 222.921875 123.882812 223.132812 C 122.984375 223.035156 119.660156 222.703125 115.402344 222.644531 C 109.007812 222.558594 102.589844 223.820312 102.589844 223.820312 C 107.019531 223.582031 111.324219 223.496094 115.386719 223.5625 C 117.972656 223.605469 119.96875 223.703125 121.296875 223.789062 C 119.238281 224.390625 117.8125 225 117.691406 225.054688 C 117.691406 225.054688 120.914062 225.457031 122.773438 226.414062 L 124.050781 227.109375 C 124.375 227.292969 124.691406 227.472656 125.089844 227.675781 C 122.984375 227.414062 120.054688 227.3125 116.203125 227.730469 L 108.246094 228.683594 C 105.683594 228.75 99.570312 228.402344 91.429688 224.609375 Z M 112.347656 236.636719 C 104.996094 235.632812 99.488281 232.09375 96.585938 229.796875 C 97.722656 230.132812 99.164062 230.378906 100.914062 230.3125 C 103.625 230.207031 105.390625 229.980469 108.316406 229.601562 L 116.304688 228.644531 C 123.0625 227.910156 126.945312 228.761719 128.371094 229.191406 C 128.851562 229.398438 129.386719 229.621094 130 229.875 C 132.273438 230.8125 134.230469 231.210938 135.746094 231.359375 C 135.351562 231.515625 134.976562 231.683594 134.617188 231.863281 L 134.605469 231.820312 C 134.566406 231.828125 130.699219 232.8125 124.964844 233.191406 C 121.011719 233.457031 116.710938 233.691406 112.976562 233.269531 C 112.976562 233.269531 118.039062 234.59375 125.027344 234.109375 C 128.058594 233.898438 130.574219 233.53125 132.300781 233.226562 C 130.804688 234.269531 129.804688 235.296875 129.394531 235.753906 C 128.109375 235.972656 126.511719 236.410156 124.46875 237.035156 C 122.765625 237.339844 119.207031 237.570312 112.347656 236.636719 Z M 125.640625 244.046875 C 120.410156 243.261719 115.832031 242.890625 113.703125 242.742188 C 115.0625 241.800781 117.714844 240.152344 121.054688 239.078125 C 124.199219 238.066406 126.625 237.304688 128.464844 236.882812 L 128.347656 237.019531 L 129.640625 236.734375 C 129.65625 236.734375 130.234375 236.609375 131.046875 236.519531 C 131.097656 236.519531 131.152344 236.515625 131.195312 236.515625 L 131.199219 236.5 C 132.398438 236.378906 134.042969 236.339844 135.234375 236.828125 C 136.769531 237.453125 139.511719 237.792969 141.230469 237.949219 C 140.765625 238.152344 140.375 238.363281 140.039062 238.570312 C 138.984375 238.617188 135.882812 238.761719 132.898438 238.996094 C 129.773438 239.242188 125.285156 240.367188 125.285156 240.367188 C 126.96875 240.046875 129.878906 240.15625 132.972656 239.914062 C 135.347656 239.726562 137.570312 239.609375 138.835938 239.550781 C 138.132812 240.324219 138.109375 240.949219 138.113281 241.070312 L 138.128906 241.566406 L 138.625 241.511719 C 138.636719 241.511719 139.324219 241.441406 140.621094 241.574219 C 138.476562 242.171875 136.449219 243.007812 134.65625 243.890625 L 134.652344 243.882812 C 134.628906 243.894531 132.535156 245.085938 125.640625 244.046875 Z M 140.101562 248.984375 C 135.433594 249.238281 130.941406 248.667969 128.96875 248.363281 C 131.082031 246.863281 136.8125 243.125 142.972656 241.96875 L 142.96875 241.945312 C 143.375 242.027344 143.808594 242.128906 144.269531 242.246094 C 145.449219 242.550781 148.492188 243.269531 152.238281 243.667969 C 150.859375 243.894531 149.078125 244.191406 147.273438 244.492188 C 144.011719 245.03125 141.25 245.824219 139.464844 246.285156 C 139.464844 246.285156 144.148438 245.652344 147.460938 245.105469 C 149.75 244.726562 151.949219 244.410156 153.347656 244.210938 C 151.566406 245.058594 150.222656 246.101562 149.238281 247.0625 L 149.222656 247.03125 C 149.191406 247.046875 146.222656 248.652344 140.101562 248.984375 Z M 160.039062 249.15625 C 157.0625 249.078125 155.402344 248.976562 154.1875 248.902344 C 152.792969 248.816406 152.089844 248.773438 150.847656 248.871094 C 149.902344 248.945312 149.152344 249.074219 148.585938 249.207031 C 149.714844 247.71875 152.324219 245.011719 156.933594 243.941406 C 157.792969 243.945312 158.660156 243.925781 159.527344 243.875 C 160.8125 244.390625 162.148438 244.890625 163.648438 245.246094 C 163.257812 245.421875 162.734375 245.613281 162.050781 245.789062 C 160.757812 246.117188 157.066406 246.742188 157.066406 246.742188 C 158.675781 247.144531 160.761719 246.832031 162.128906 246.484375 C 163.847656 246.046875 164.824219 245.625 165.039062 245.519531 C 165.230469 245.550781 165.410156 245.582031 165.605469 245.609375 C 167.246094 245.824219 168.828125 245.53125 170.082031 245.140625 C 169.625 245.566406 169.269531 246.148438 169.105469 246.886719 C 168.539062 247.316406 165.613281 249.304688 160.039062 249.15625 Z M 177.015625 250.898438 C 175.609375 252.15625 173.753906 252 172.484375 251.433594 C 170.90625 250.726562 169.921875 249.347656 169.921875 247.835938 C 169.921875 246.039062 171.117188 245.277344 172.136719 245.167969 C 172.9375 245.085938 173.882812 245.398438 174.074219 246.285156 C 174.21875 246.953125 174.167969 247.46875 173.933594 247.78125 C 173.683594 248.109375 172.957031 248.722656 172.941406 248.726562 C 172.941406 248.726562 174.148438 249.003906 174.652344 248.351562 C 174.933594 247.988281 175.074219 247.527344 175.074219 246.972656 C 175.074219 246.699219 175.042969 246.40625 174.976562 246.09375 C 174.882812 245.660156 174.648438 245.3125 174.355469 245.015625 C 174.359375 245.015625 174.394531 244.996094 174.394531 244.996094 C 173.664062 243.613281 171.46875 242.691406 168.433594 241.417969 C 164.195312 239.636719 158.394531 237.199219 153.335938 232.113281 C 151.136719 229.902344 149.421875 227.328125 148.074219 224.683594 L 148.074219 224.679688 C 148.074219 224.679688 148.070312 224.679688 148.070312 224.679688 C 144.953125 218.5625 143.804688 212.058594 143.214844 208.699219 L 142.871094 206.929688 C 142.632812 205.988281 141.273438 204.308594 139.21875 201.769531 C 136.425781 198.316406 132.527344 193.492188 130.015625 188.507812 L 130.027344 188.496094 C 130.023438 188.492188 130.011719 188.476562 129.992188 188.457031 C 129.285156 187.046875 128.683594 185.625 128.257812 184.21875 C 127.082031 180.335938 126.730469 176.960938 126.730469 174.316406 C 126.730469 172.300781 126.933594 170.71875 127.132812 169.648438 C 128.21875 172.988281 130.992188 180.960938 134.496094 186.941406 C 137.339844 191.792969 141.441406 196.011719 144.4375 199.09375 C 146.28125 200.988281 147.734375 202.480469 148.296875 203.480469 C 148.765625 204.3125 148.917969 206.179688 149.109375 208.542969 C 149.5 213.363281 150.089844 220.648438 154.179688 226.832031 C 160.394531 236.226562 167.996094 239.265625 173.546875 241.484375 C 176.289062 242.578125 178.082031 244.453125 178.464844 246.632812 C 178.511719 246.917969 178.535156 247.199219 178.535156 247.476562 C 178.535156 248.789062 177.996094 250.027344 177.015625 250.898438 Z M 172.277344 244.242188 C 172.28125 244.242188 172.285156 244.238281 172.289062 244.238281 C 172.289062 244.238281 172.292969 244.242188 172.296875 244.242188 C 172.289062 244.242188 172.285156 244.242188 172.277344 244.242188 Z M 173.332031 242.128906 L 170.296875 240.800781 C 165.003906 238.519531 159.527344 236.15625 155.140625 231.695312 C 146.214844 222.621094 145.507812 210.136719 145.457031 207.726562 C 145.382812 204.332031 143.519531 202.550781 140.9375 200.082031 L 139.949219 199.132812 C 136.945312 196.207031 133.28125 191.589844 133.28125 191.589844 C 133.316406 191.636719 136.246094 196.808594 139.304688 199.789062 L 140.300781 200.746094 C 142.8125 203.148438 144.472656 204.734375 144.535156 207.746094 C 144.589844 210.214844 145.316406 223.015625 154.484375 232.339844 C 159 236.929688 164.808594 239.433594 169.933594 241.644531 L 172.953125 242.96875 C 175.871094 244.285156 176.15625 246.890625 175.652344 248.226562 C 175.515625 248.585938 174.976562 249.726562 173.738281 249.347656 C 173.738281 249.347656 175.5 250.734375 176.511719 248.550781 C 177.4375 246.546875 176.445312 243.535156 173.332031 242.128906 Z M 69.292969 203.3125 C 69.292969 203.3125 69.289062 203.3125 69.289062 203.3125 C 69.269531 203.3125 69.277344 203.3125 69.292969 203.3125 Z M 69.292969 203.3125 " fill-opacity="1" fill-rule="nonzero"/></g><g clip-path="url(#9c3eb0f296)"><path fill="#ffffff" d="M 197.4375 251.585938 C 198.894531 252.882812 201.007812 253.144531 202.960938 252.269531 C 204.800781 251.449219 205.960938 249.84375 206.050781 248.054688 C 207.355469 248.855469 210.277344 250.203125 215.054688 250.074219 C 218.046875 249.996094 219.785156 249.890625 220.9375 249.820312 C 222.332031 249.734375 222.96875 249.695312 224.152344 249.785156 C 226.269531 249.949219 227.382812 250.433594 227.390625 250.4375 L 228.589844 250.96875 L 227.988281 249.804688 C 227.957031 249.746094 227.691406 249.25 227.15625 248.554688 C 228.691406 249.070312 231.246094 249.703125 234.917969 249.902344 C 241.226562 250.246094 247.277344 249.101562 247.339844 249.089844 L 248.328125 248.902344 L 247.535156 248.277344 C 247.398438 248.167969 245.714844 246.855469 243.132812 245.351562 C 244.613281 245.445312 246.695312 245.390625 249.5625 244.957031 C 256.703125 243.882812 262.632812 243.585938 262.691406 243.582031 L 263.882812 243.523438 L 262.960938 242.769531 C 262.8125 242.648438 259.324219 239.820312 254.296875 238.207031 C 254.230469 238.183594 254.167969 238.164062 254.101562 238.144531 C 256.207031 238.199219 259.046875 238.0625 262.84375 237.546875 C 274.265625 235.992188 281.765625 228.015625 281.765625 228.015625 C 281.742188 228.03125 278.433594 229.554688 274.191406 229.394531 C 273.210938 229.355469 272.355469 229.300781 271.519531 229.230469 C 274.734375 228.808594 279.015625 227.777344 284.03125 225.445312 C 295.21875 220.234375 296.382812 214.605469 296.425781 214.367188 L 296.664062 213.078125 L 295.671875 213.9375 C 295.621094 213.980469 290.699219 218.121094 279.605469 218.019531 C 281.257812 217.671875 283.105469 217.1875 285.078125 216.5 C 290.664062 214.554688 294.417969 211.390625 297.429688 208.847656 C 298.578125 207.878906 299.664062 206.960938 300.722656 206.214844 C 302.894531 204.683594 305.105469 203.394531 305.773438 203.3125 C 305.339844 203.300781 293.949219 202.722656 284.324219 204.453125 C 287.597656 202.992188 292.328125 200.769531 297.117188 198.140625 C 305.808594 193.367188 311.589844 183.46875 311.648438 183.375 C 311.648438 183.375 307.207031 185.953125 302.023438 187.179688 C 300.550781 187.527344 298.90625 187.769531 297 188.050781 C 293.949219 188.5 290.4375 189.019531 286.484375 190.152344 C 290.574219 187.898438 295.507812 184.8125 299.164062 181.355469 C 306.652344 174.277344 309.96875 161.507812 310.109375 160.96875 L 310.410156 159.78125 L 309.402344 160.476562 C 309.359375 160.503906 305.113281 163.394531 298.363281 165.53125 C 295.390625 166.46875 292.042969 168.058594 288.804688 169.84375 C 290.640625 167.019531 294.773438 159.902344 296.882812 150.152344 C 299.640625 137.402344 295.175781 126.542969 295.132812 126.4375 L 294.542969 125.035156 L 294.253906 126.527344 C 294.234375 126.621094 292.433594 135.800781 288.320312 143.460938 C 287.441406 145.09375 286.269531 146.917969 284.953125 148.855469 C 286.082031 144.765625 287.734375 136.753906 286.824219 127.203125 C 285.496094 113.234375 270.9375 104.082031 270.789062 103.992188 L 269.503906 103.195312 L 270.128906 104.570312 C 270.179688 104.679688 275.007812 115.484375 273.714844 128.808594 C 273.199219 134.089844 272.613281 137.914062 271.949219 141.074219 C 271.804688 136.695312 271.242188 129.308594 269.199219 123.308594 C 266.027344 113.976562 260.226562 113.695312 259.976562 113.6875 L 259.109375 113.664062 L 259.578125 114.398438 C 259.597656 114.429688 261.472656 117.496094 260.199219 128.457031 C 259.855469 131.378906 259.464844 134.0625 259.085938 136.660156 C 258.074219 143.597656 257.261719 149.191406 258.160156 154.367188 C 256.679688 153.011719 255.496094 152.367188 255.464844 152.347656 L 254.660156 151.921875 L 254.792969 152.820312 C 254.804688 152.90625 256.015625 161.480469 253.535156 171.835938 C 252.042969 178.0625 249.28125 182.8125 247.3125 185.621094 C 247.449219 185.242188 247.578125 184.863281 247.691406 184.484375 C 248.910156 180.464844 249.277344 176.996094 249.277344 174.28125 C 249.277344 170.304688 248.492188 167.933594 248.433594 167.773438 L 247.96875 166.410156 L 247.558594 167.789062 C 247.527344 167.902344 244.242188 178.859375 239.78125 186.476562 C 236.992188 191.234375 232.933594 195.40625 229.96875 198.453125 C 228.082031 200.394531 226.589844 201.925781 225.96875 203.027344 C 225.402344 204.035156 225.25 205.894531 225.042969 208.46875 C 224.660156 213.195312 224.078125 220.335938 220.121094 226.324219 C 214.066406 235.480469 206.921875 238.335938 201.179688 240.628906 C 198.136719 241.84375 196.140625 243.976562 195.699219 246.472656 C 195.359375 248.402344 196.011719 250.3125 197.4375 251.585938 Z M 197.4375 251.585938 " fill-opacity="1" fill-rule="nonzero"/><path fill="#000000" d="M 197.4375 251.585938 C 198.894531 252.882812 201.007812 253.144531 202.960938 252.269531 C 204.800781 251.449219 205.960938 249.84375 206.050781 248.054688 C 207.355469 248.855469 210.277344 250.203125 215.054688 250.074219 C 218.046875 249.996094 219.785156 249.890625 220.9375 249.820312 C 222.332031 249.734375 222.96875 249.695312 224.152344 249.789062 C 226.269531 249.949219 227.382812 250.433594 227.390625 250.4375 L 228.589844 250.96875 L 227.988281 249.804688 C 227.957031 249.742188 227.691406 249.25 227.15625 248.554688 C 228.691406 249.070312 231.246094 249.703125 234.917969 249.902344 C 241.226562 250.246094 247.277344 249.101562 247.339844 249.089844 L 248.328125 248.902344 L 247.535156 248.277344 C 247.398438 248.167969 245.714844 246.855469 243.132812 245.351562 C 244.613281 245.445312 246.695312 245.390625 249.5625 244.957031 C 256.703125 243.882812 262.632812 243.585938 262.691406 243.582031 L 263.882812 243.523438 L 262.960938 242.769531 C 262.8125 242.648438 259.324219 239.820312 254.296875 238.207031 C 254.230469 238.183594 254.167969 238.164062 254.101562 238.144531 C 256.207031 238.199219 259.046875 238.066406 262.84375 237.546875 C 274.265625 235.992188 281.765625 228.015625 281.765625 228.015625 C 281.742188 228.03125 278.433594 229.554688 274.191406 229.394531 C 273.210938 229.355469 272.355469 229.300781 271.519531 229.230469 C 274.738281 228.808594 279.015625 227.777344 284.03125 225.445312 C 295.21875 220.234375 296.382812 214.605469 296.425781 214.367188 L 296.664062 213.078125 L 295.671875 213.9375 C 295.621094 213.980469 290.699219 218.121094 279.605469 218.019531 C 281.257812 217.671875 283.105469 217.1875 285.078125 216.5 C 290.664062 214.554688 294.417969 211.390625 297.429688 208.847656 C 298.578125 207.878906 299.664062 206.960938 300.722656 206.214844 C 302.894531 204.683594 305.105469 203.394531 305.773438 203.3125 C 305.339844 203.300781 293.949219 202.722656 284.324219 204.453125 C 287.597656 202.992188 292.328125 200.769531 297.117188 198.140625 C 305.808594 193.367188 311.589844 183.46875 311.648438 183.375 C 311.648438 183.375 307.207031 185.953125 302.023438 187.179688 C 300.550781 187.527344 298.90625 187.769531 297 188.050781 C 293.949219 188.5 290.4375 189.019531 286.484375 190.152344 C 290.574219 187.898438 295.507812 184.8125 299.164062 181.355469 C 306.652344 174.277344 309.972656 161.507812 310.109375 160.96875 L 310.410156 159.78125 L 309.402344 160.476562 C 309.359375 160.503906 305.113281 163.394531 298.367188 165.53125 C 295.390625 166.46875 292.042969 168.058594 288.804688 169.84375 C 290.640625 167.019531 294.773438 159.902344 296.882812 150.152344 C 299.640625 137.402344 295.175781 126.542969 295.132812 126.4375 L 294.542969 125.035156 L 294.253906 126.527344 C 294.238281 126.617188 292.433594 135.800781 288.320312 143.460938 C 287.441406 145.09375 286.269531 146.917969 284.953125 148.855469 C 286.082031 144.765625 287.734375 136.753906 286.824219 127.203125 C 285.496094 113.234375 270.9375 104.082031 270.789062 103.992188 L 269.503906 103.195312 L 270.128906 104.570312 C 270.179688 104.679688 275.007812 115.484375 273.714844 128.808594 C 273.199219 134.089844 272.613281 137.914062 271.949219 141.074219 C 271.804688 136.695312 271.242188 129.308594 269.203125 123.308594 C 266.027344 113.976562 260.226562 113.695312 259.976562 113.6875 L 259.109375 113.664062 L 259.578125 114.398438 C 259.597656 114.429688 261.472656 117.496094 260.199219 128.457031 C 259.855469 131.378906 259.464844 134.0625 259.085938 136.660156 C 258.074219 143.597656 257.261719 149.191406 258.160156 154.367188 C 256.679688 153.011719 255.496094 152.367188 255.464844 152.347656 L 254.660156 151.921875 L 254.792969 152.820312 C 254.804688 152.90625 256.015625 161.480469 253.535156 171.835938 C 252.042969 178.0625 249.28125 182.8125 247.3125 185.621094 C 247.449219 185.242188 247.578125 184.863281 247.691406 184.484375 C 248.910156 180.464844 249.277344 176.996094 249.277344 174.28125 C 249.277344 170.304688 248.492188 167.933594 248.433594 167.773438 L 247.96875 166.410156 L 247.558594 167.789062 C 247.527344 167.898438 244.242188 178.859375 239.78125 186.476562 C 236.992188 191.234375 232.933594 195.40625 229.96875 198.453125 C 228.082031 200.394531 226.589844 201.925781 225.96875 203.027344 C 225.402344 204.035156 225.25 205.894531 225.042969 208.46875 C 224.660156 213.195312 224.078125 220.335938 220.121094 226.324219 C 214.066406 235.480469 206.921875 238.335938 201.179688 240.628906 C 198.136719 241.84375 196.140625 243.976562 195.699219 246.472656 C 195.359375 248.402344 196.011719 250.3125 197.4375 251.585938 Z M 263.1875 166.96875 C 263.195312 167.167969 263.203125 167.371094 263.203125 167.578125 C 263.203125 176.636719 253.253906 190.546875 246.652344 196.707031 C 247.488281 194.566406 247.902344 193.050781 247.925781 192.953125 L 248.234375 191.804688 L 247.230469 192.449219 C 247.222656 192.453125 247.125 192.519531 246.960938 192.628906 C 247.871094 191.519531 248.945312 190.1875 250.023438 188.820312 C 253.523438 184.378906 255.015625 179.640625 255.015625 179.640625 C 253.753906 181.996094 251.582031 185.191406 249.285156 188.269531 C 247.183594 191.089844 244.964844 193.664062 244.179688 194.5625 C 243.058594 195.378906 241.734375 196.375 240.40625 197.472656 C 242.355469 194.875 244.335938 191.964844 245.84375 188.980469 C 246.765625 187.960938 252.109375 181.738281 254.429688 172.050781 C 255.699219 166.742188 256.015625 161.894531 256.015625 158.375 C 256.015625 156.25 255.902344 154.617188 255.808594 153.65625 C 257.769531 155.011719 262.785156 159.214844 263.1875 166.96875 Z M 239.433594 201.640625 C 238.609375 202.550781 237.320312 203.796875 235.613281 205.347656 L 232.992188 207.652344 L 233.085938 207.160156 C 233.28125 206.40625 234.804688 204.527344 236.566406 202.347656 C 236.621094 202.28125 236.679688 202.207031 236.734375 202.140625 L 236.742188 202.144531 C 238.976562 199.679688 242.144531 197.183594 244.503906 195.464844 L 244.566406 195.515625 C 244.570312 195.511719 244.648438 195.417969 244.777344 195.265625 C 245.515625 194.730469 246.167969 194.277344 246.667969 193.9375 C 246.234375 195.269531 245.421875 197.539062 244.195312 199.984375 C 242.667969 203.03125 240.304688 205.222656 239.457031 205.949219 C 238.253906 206.257812 237.109375 206.660156 236.238281 207.1875 C 234.539062 208.214844 233.316406 209.3125 232.535156 210.125 C 232.601562 209.765625 232.660156 209.429688 232.714844 209.113281 L 235.949219 205.980469 C 237.679688 204.410156 239.433594 201.640625 239.433594 201.640625 Z M 237.847656 209.773438 C 237.847656 209.773438 235.585938 210.613281 233.390625 212.332031 C 232.792969 212.796875 232.261719 213.222656 231.839844 213.566406 C 231.972656 212.96875 232.09375 212.398438 232.203125 211.851562 C 232.5625 211.402344 234.109375 209.546875 236.714844 207.972656 C 238.65625 206.800781 241.835938 206.246094 243.828125 205.996094 C 243.4375 206.296875 242.996094 206.671875 242.535156 207.113281 C 242.507812 207.125 242.488281 207.132812 242.484375 207.132812 L 242.492188 207.152344 C 241.617188 208 240.671875 209.105469 239.835938 210.527344 C 239.234375 211.558594 238.597656 212.394531 238 213.070312 L 237.9375 213.105469 L 237.953125 213.128906 C 236.839844 214.375 235.863281 215.050781 235.445312 215.308594 C 233.824219 215.796875 232.117188 216.414062 230.898438 217.195312 C 231.121094 216.433594 231.324219 215.691406 231.503906 214.972656 C 231.90625 214.597656 232.839844 213.738281 233.824219 212.917969 C 235.0625 211.894531 236.984375 210.347656 237.847656 209.773438 Z M 233.304688 219.511719 C 233.304688 219.511719 231.199219 220.511719 230.484375 220.863281 C 230.140625 221.03125 229.824219 221.128906 229.554688 221.191406 C 229.878906 220.351562 230.167969 219.523438 230.433594 218.710938 C 231.867188 217.316406 235.730469 216.15625 237.96875 215.546875 L 238.863281 215.300781 C 239.691406 215.066406 240.40625 214.695312 241.003906 214.308594 C 240.484375 215.117188 239.734375 216.175781 238.648438 217.519531 C 235.714844 221.148438 233.121094 222.15625 233.09375 222.164062 L 233.097656 222.179688 C 233.035156 222.199219 232.96875 222.210938 232.902344 222.226562 C 230.820312 222.804688 229.367188 223.402344 228.421875 223.863281 C 228.695312 223.269531 228.957031 222.675781 229.199219 222.085938 C 229.53125 221.980469 230.121094 221.769531 230.84375 221.417969 C 231.613281 221.039062 232.648438 220.011719 233.304688 219.511719 Z M 230.339844 226.089844 C 229.191406 226.40625 228.152344 226.953125 227.320312 227.382812 C 226.945312 227.578125 226.585938 227.722656 226.265625 227.835938 C 226.785156 227.007812 227.269531 226.160156 227.710938 225.304688 C 228.199219 224.988281 229.863281 224.027344 233.148438 223.113281 C 235.359375 222.5 236.910156 222.726562 237.855469 223.039062 C 236.917969 223.339844 235.59375 223.949219 234.171875 225.242188 L 232.636719 226.691406 C 230.75 228.511719 228.96875 230.226562 227.003906 230.570312 L 227.007812 230.605469 C 225.765625 230.726562 224.65625 230.96875 223.816406 231.195312 C 224.421875 230.480469 224.988281 229.742188 225.515625 228.980469 C 225.824219 228.855469 226.605469 228.53125 227.582031 228.027344 C 228.449219 227.578125 230.339844 226.089844 230.339844 226.089844 Z M 225.191406 233.585938 C 224.621094 233.847656 222.617188 234.097656 221.484375 234.394531 C 221.074219 234.5 220.667969 234.597656 220.296875 234.683594 C 221 234.085938 221.699219 233.449219 222.382812 232.761719 C 222.449219 232.695312 222.515625 232.625 222.582031 232.554688 C 222.679688 232.515625 224.894531 231.660156 227.574219 231.480469 C 228.945312 231.386719 230.210938 231.414062 231.144531 231.464844 C 230.039062 232.113281 228.480469 233.183594 227.085938 234.738281 C 225.039062 237.007812 219.335938 238.546875 216.667969 238.453125 C 216.21875 238.347656 215.765625 238.265625 215.324219 238.230469 C 216.464844 237.546875 217.617188 236.777344 218.761719 235.914062 L 218.769531 235.953125 C 218.785156 235.949219 220.039062 235.589844 221.539062 235.195312 C 222.722656 234.886719 225.191406 233.585938 225.191406 233.585938 Z M 214.207031 241.832031 C 213.140625 241.859375 211.09375 241.554688 210.058594 241.382812 C 209.8125 241.339844 209.589844 241.292969 209.382812 241.242188 C 210.6875 240.667969 212.078125 240.019531 213.507812 239.253906 L 213.515625 239.277344 C 215.988281 238.574219 219.152344 240.148438 220.945312 241.246094 C 220.175781 241.289062 219.195312 241.449219 218.023438 241.890625 L 216.050781 242.671875 C 214.03125 243.5 211.9375 244.355469 209.34375 244.699219 C 207.121094 244.992188 204.957031 244.222656 203.773438 243.691406 C 204.675781 243.238281 205.773438 242.777344 206.992188 242.261719 C 207.363281 242.105469 207.753906 241.945312 208.148438 241.773438 C 208.527344 241.84375 209.179688 241.964844 209.976562 242.117188 C 212.207031 242.550781 214.207031 241.832031 214.207031 241.832031 Z M 254.316406 219.414062 L 254.320312 219.429688 C 246.339844 222.878906 241.382812 223.023438 239.617188 222.925781 L 239.527344 222.851562 C 239.457031 222.792969 238.109375 221.738281 235.503906 221.820312 C 235.601562 221.746094 235.707031 221.671875 235.8125 221.589844 L 236.558594 221.441406 C 237.808594 221.207031 240.144531 220.78125 243.066406 219.976562 C 248.203125 218.5625 253.0625 215.890625 253.0625 215.890625 C 249.925781 217.042969 246.1875 218.175781 242.824219 219.089844 C 240.503906 219.722656 238.570312 220.121094 237.253906 220.375 C 237.917969 219.753906 238.628906 219.007812 239.367188 218.097656 C 240.121094 217.164062 240.699219 216.332031 241.140625 215.601562 C 244.292969 214.757812 247.75 213.363281 251.140625 211.648438 C 253.632812 210.390625 255.941406 209.980469 258.382812 209.546875 C 260.3125 209.203125 262.308594 208.847656 264.492188 208.050781 C 266.277344 207.402344 267.492188 206.808594 268.328125 206.300781 C 266.632812 209.488281 262.484375 215.816406 254.832031 219.207031 C 254.6875 219.269531 254.550781 219.328125 254.410156 219.390625 C 254.378906 219.398438 254.347656 219.40625 254.316406 219.414062 Z M 269.59375 180.929688 L 269.621094 180.9375 C 268.90625 182.972656 268 184.859375 266.847656 186.371094 C 262.835938 191.617188 258.828125 195.355469 258.789062 195.390625 L 258.867188 195.472656 C 255.660156 197.308594 252.769531 199.679688 249.886719 202.160156 C 248.507812 203.339844 247.273438 204.269531 246.226562 204.984375 C 245.703125 205.011719 244.003906 205.117188 242.058594 205.425781 C 243.65625 204.371094 246.601562 202.378906 249.75 200.011719 C 255.535156 195.667969 258.441406 190.398438 258.441406 190.398438 C 256.507812 193.03125 253.390625 196.023438 249.183594 199.289062 C 246.78125 201.152344 244.476562 202.75 242.820312 203.851562 C 243.539062 202.9375 244.320312 201.789062 245.019531 200.394531 C 245.316406 199.796875 245.589844 199.214844 245.839844 198.648438 C 251.632812 193.898438 261.3125 181.273438 263.613281 171.488281 C 263.988281 170.761719 265.886719 167.175781 268.292969 164.617188 C 270.027344 162.777344 271.585938 161.203125 272.5 160.292969 C 272.410156 161.980469 272.160156 166.6875 272.160156 166.6875 C 272.078125 168.058594 271.941406 169.742188 271.710938 171.554688 C 271.710938 171.558594 271.710938 171.5625 271.707031 171.5625 L 271.710938 171.566406 C 271.335938 174.488281 270.71875 177.765625 269.691406 180.742188 C 269.628906 180.855469 269.597656 180.914062 269.59375 180.929688 Z M 264.816406 193.871094 C 268.214844 192.84375 271.035156 192.300781 272.675781 192.035156 C 271.582031 193.078125 269.753906 195.042969 267.074219 198.613281 C 264.039062 202.65625 257.632812 207.324219 250.914062 210.742188 C 250.851562 210.773438 250.789062 210.796875 250.726562 210.828125 L 250.726562 210.832031 C 247.707031 212.359375 244.632812 213.628906 241.773438 214.472656 C 242.539062 212.949219 242.59375 212.128906 242.59375 212.128906 C 242.578125 212.144531 240.742188 213.8125 238.613281 214.414062 L 237.726562 214.660156 C 237.71875 214.664062 237.710938 214.664062 237.703125 214.667969 C 237.976562 214.421875 238.265625 214.136719 238.566406 213.808594 L 246.164062 209.578125 L 254.84375 203.855469 L 245.714844 208.773438 L 240.03125 211.941406 C 240.230469 211.644531 240.433594 211.332031 240.632812 210.992188 C 241.3125 209.832031 242.152344 208.796875 242.972656 207.925781 C 243.648438 207.636719 246.453125 206.324219 250.488281 202.855469 C 254.890625 199.070312 259.296875 195.535156 264.816406 193.871094 Z M 254.410156 224.859375 C 253.609375 224.960938 252.710938 225.164062 251.875 225.59375 L 250.5625 226.308594 C 249.542969 226.886719 248.578125 227.433594 244.71875 229.027344 C 239.644531 231.117188 235.550781 230.320312 235.515625 230.3125 L 235.519531 230.316406 C 233.429688 229.914062 231.722656 229.804688 230.5625 229.796875 C 231.320312 229.207031 232.0625 228.515625 232.820312 227.792969 C 233.285156 227.664062 235.289062 227.121094 237.925781 226.714844 C 240.007812 226.394531 242.59375 226.003906 244.316406 225.660156 C 244.316406 225.660156 240.0625 225.675781 237.933594 226.003906 C 236.367188 226.246094 235.003906 226.476562 234.023438 226.648438 L 234.792969 225.921875 C 236.429688 224.433594 237.9375 223.925781 238.710938 223.753906 C 238.875 223.789062 241.136719 224.195312 245.488281 223.292969 C 248.84375 223.121094 252.300781 224.105469 254.410156 224.859375 Z M 244.214844 235.597656 C 244.167969 235.597656 244.125 235.597656 244.078125 235.597656 C 242.773438 235.453125 240.902344 235.398438 239.484375 235.976562 C 237.695312 236.710938 233.269531 237.113281 231.820312 237.226562 C 229.621094 236.566406 227.933594 236.292969 226.851562 236.183594 C 227.191406 235.917969 227.507812 235.640625 227.769531 235.351562 C 228.152344 234.921875 228.558594 234.535156 228.957031 234.179688 C 229.65625 234.097656 231.398438 233.929688 233.359375 234.019531 C 235.878906 234.132812 239.171875 234.535156 239.171875 234.535156 C 237.527344 234.140625 235.871094 233.464844 233.296875 233.347656 C 232.046875 233.289062 230.914062 233.277344 230.070312 233.277344 C 231.613281 232.136719 232.917969 231.566406 232.9375 231.558594 L 234.1875 231.023438 C 235.148438 231.164062 236.210938 231.375 237.355469 231.675781 C 240.59375 232.53125 242.980469 234.429688 244.214844 235.597656 Z M 232.097656 238.277344 C 234.628906 239.085938 235.519531 240.019531 235.84375 240.574219 C 234.9375 240.574219 233.164062 240.691406 230.570312 241.355469 C 228.90625 241.785156 223.484375 243.046875 217.667969 243.019531 L 218.347656 242.75 C 220.898438 241.792969 223.550781 241.917969 223.550781 241.917969 C 223.445312 241.832031 221.976562 240.722656 220.023438 239.738281 C 220.578125 239.796875 221.222656 239.863281 221.914062 239.933594 C 223.851562 240.144531 227.40625 240.195312 227.40625 240.195312 C 226.285156 240.019531 223.980469 239.386719 222.101562 239.1875 C 221.480469 239.117188 220.882812 239.042969 220.359375 238.96875 C 222.105469 238.585938 224.007812 237.917969 225.5625 237.03125 C 226.027344 237.03125 228.363281 237.082031 232.097656 238.277344 Z M 271.074219 143.785156 C 271.074219 144.308594 271.070312 144.644531 271.066406 144.761719 C 270.507812 146.859375 269.898438 148.75 269.242188 150.792969 L 268.210938 154.054688 C 266.011719 161.171875 264.738281 167.175781 264.539062 168.152344 C 264.359375 168.449219 264.195312 168.730469 264.042969 169 C 264.113281 168.28125 264.140625 167.585938 264.105469 166.921875 C 264.011719 165.128906 263.683594 163.519531 263.203125 162.078125 C 263.0625 160.179688 262.8125 154.90625 263.757812 148.570312 C 264.957031 140.527344 264.914062 135.394531 264.910156 135.34375 C 264.910156 135.34375 264.03125 140.46875 262.847656 148.4375 C 262.125 153.257812 262.097656 157.222656 262.195312 159.644531 C 261.335938 157.945312 260.285156 156.5625 259.277344 155.476562 C 258.890625 153.644531 258.691406 151.464844 258.691406 149.527344 C 258.691406 145.742188 259.296875 141.59375 259.996094 136.792969 C 260.378906 134.191406 260.769531 131.5 261.113281 128.5625 C 261.441406 125.742188 261.5625 123.425781 261.5625 121.539062 C 261.5625 117.808594 261.082031 115.761719 260.722656 114.742188 C 262.320312 115.140625 266.011719 116.789062 268.328125 123.601562 C 270.855469 131.03125 271.074219 140.660156 271.074219 143.785156 Z M 283.183594 151.417969 C 282.800781 151.964844 282.417969 152.515625 282.027344 153.074219 C 278.550781 158.019531 274.988281 163.089844 273.023438 167.601562 C 273.042969 167.308594 273.0625 167.015625 273.078125 166.742188 L 273.246094 163.59375 C 273.820312 161.726562 275.558594 155.835938 276.925781 148.589844 C 278.578125 139.816406 279.453125 127.574219 279.464844 127.449219 C 279.464844 127.449219 277.664062 139.699219 276.019531 148.417969 C 275.125 153.167969 274.15625 157.058594 273.457031 159.625 L 273.542969 157.980469 L 272.699219 158.800781 C 272.675781 158.824219 270.359375 161.082031 267.625 163.988281 C 267.035156 164.613281 266.484375 165.296875 265.984375 165.976562 C 266.496094 163.675781 267.511719 159.429688 269.089844 154.328125 L 270.121094 151.074219 C 272.007812 145.195312 273.496094 140.550781 274.628906 128.898438 C 274.785156 127.296875 274.855469 125.734375 274.855469 124.214844 C 274.855469 115.550781 272.617188 108.507812 271.539062 105.617188 C 275.019531 108.125 284.847656 116.136719 285.910156 127.289062 C 286.089844 129.191406 286.167969 131.035156 286.167969 132.792969 C 286.167969 143.414062 283.328125 151.042969 283.183594 151.417969 Z M 286.75 171.007812 C 282.683594 173.378906 278.960938 175.914062 276.601562 177.664062 C 273.738281 179.785156 271.246094 181.996094 269.539062 183.601562 C 269.910156 182.800781 270.242188 181.957031 270.542969 181.09375 C 270.898438 180.484375 272.601562 177.710938 277.824219 170.546875 L 288.925781 153.058594 L 277.078125 170.007812 C 274.367188 173.726562 272.601562 176.269531 271.464844 177.960938 C 271.992188 175.851562 272.359375 173.714844 272.613281 171.734375 C 273.667969 166.566406 278.507812 159.679688 282.777344 153.601562 C 285.261719 150.066406 287.609375 146.726562 289.128906 143.894531 C 292.289062 138.015625 294.101562 131.273438 294.808594 128.277344 C 295.5625 130.609375 296.863281 135.492188 296.863281 141.554688 C 296.863281 144.175781 296.617188 147.015625 295.984375 149.957031 C 293.457031 161.628906 287.570312 169.898438 286.75 171.007812 Z M 278.476562 193.121094 L 278.496094 193.164062 C 273.964844 195.300781 270.234375 197.628906 267.527344 199.519531 C 267.625 199.402344 267.722656 199.28125 267.808594 199.164062 C 272.328125 193.144531 275.292969 190.558594 275.292969 190.558594 C 275.269531 190.558594 273.472656 190.824219 270.882812 191.378906 C 272.082031 190.222656 274.625 187.925781 279.984375 183.5 C 289.394531 175.738281 295.4375 172.882812 295.4375 172.882812 C 295.175781 172.960938 288.96875 174.894531 279.402344 182.792969 C 271.867188 189.007812 269.808594 191.09375 269.253906 191.742188 C 267.792969 192.082031 266.183594 192.496094 264.546875 192.988281 C 263.402344 193.335938 262.308594 193.761719 261.25 194.246094 C 262.820312 192.628906 265.195312 190.046875 267.578125 186.929688 C 267.667969 186.8125 267.746094 186.683594 267.832031 186.5625 C 267.875 186.523438 271.898438 182.292969 277.152344 178.402344 C 281.695312 175.035156 291.335938 168.71875 298.640625 166.40625 C 303.660156 164.820312 307.238281 162.875 308.890625 161.882812 C 307.894531 165.1875 304.5625 174.988281 298.53125 180.6875 C 291.203125 187.613281 278.605469 193.066406 278.476562 193.121094 Z M 279.726562 205.433594 C 273.449219 206.976562 269.210938 208.898438 267.011719 210.0625 C 269.453125 206.65625 270.578125 203.855469 270.578125 203.855469 C 270.570312 203.867188 269 205.242188 265.421875 206.707031 C 267.445312 205.382812 270.695312 203.410156 275.417969 200.960938 C 284.332031 196.339844 292.839844 194.203125 292.839844 194.203125 C 292.757812 194.21875 284.042969 195.457031 274.996094 200.144531 C 266.488281 204.554688 262.789062 207.378906 262.265625 207.789062 C 260.871094 208.164062 259.53125 208.40625 258.222656 208.640625 C 257.371094 208.792969 256.535156 208.941406 255.703125 209.125 C 259.152344 207.046875 262.328125 204.726562 264.785156 202.445312 C 267.152344 200.648438 272.171875 197.136719 279.085938 193.902344 C 286.203125 190.574219 292.265625 189.679688 297.136719 188.960938 C 299.0625 188.675781 300.722656 188.429688 302.234375 188.074219 C 305.410156 187.324219 307.964844 186.078125 309.578125 185.152344 C 307.511719 188.078125 302.878906 193.929688 296.671875 197.335938 C 288.578125 201.777344 280.640625 205.058594 279.726562 205.433594 Z M 273.132812 217.898438 C 266.949219 217.773438 262.527344 217.746094 258.070312 218.546875 C 259.492188 217.679688 260.777344 216.710938 261.941406 215.691406 C 262.847656 215.425781 266.347656 214.417969 270.820312 213.304688 C 275.34375 212.175781 279.457031 211.285156 283.050781 210.65625 C 283.050781 210.65625 275.140625 211.277344 270.597656 212.410156 C 267.40625 213.207031 264.761719 214.023438 263.175781 214.542969 C 264.03125 213.707031 264.808594 212.851562 265.511719 212.003906 C 266.695312 211.273438 273.230469 207.464844 284.09375 205.429688 C 292.011719 203.941406 298.753906 203.914062 302.480469 204.070312 C 301.828125 204.394531 301.078125 204.839844 300.195312 205.460938 C 299.101562 206.234375 298 207.164062 296.835938 208.144531 C 293.722656 210.769531 290.199219 213.742188 284.777344 215.628906 C 279.632812 217.421875 275.3125 217.824219 273.132812 217.898438 Z M 266.820312 228.683594 L 258.863281 227.730469 C 255.011719 227.3125 252.085938 227.414062 249.980469 227.675781 C 250.378906 227.472656 250.695312 227.292969 251.015625 227.109375 L 252.292969 226.414062 C 254.152344 225.457031 257.375 225.054688 257.375 225.054688 C 257.257812 225 255.832031 224.390625 253.773438 223.789062 C 255.097656 223.703125 257.09375 223.605469 259.683594 223.5625 C 263.742188 223.496094 268.050781 223.582031 272.480469 223.820312 C 272.480469 223.820312 266.0625 222.558594 259.667969 222.644531 C 255.410156 222.703125 252.085938 223.035156 251.183594 223.132812 C 250.203125 222.921875 249.164062 222.75 248.105469 222.648438 C 250.015625 222.109375 252.222656 221.339844 254.710938 220.261719 C 260.027344 218.765625 264.6875 218.667969 271.558594 218.789062 L 271.554688 218.820312 C 271.632812 218.824219 272.238281 218.859375 273.265625 218.820312 C 273.660156 218.828125 274.054688 218.835938 274.464844 218.84375 L 279.34375 218.9375 C 287.820312 219.0625 292.792969 216.832031 294.96875 215.53125 C 293.949219 217.441406 291.136719 221.117188 283.640625 224.609375 C 275.5 228.402344 269.382812 228.75 266.820312 228.683594 Z M 250.597656 237.035156 C 248.558594 236.410156 246.957031 235.972656 245.671875 235.753906 C 245.261719 235.296875 244.261719 234.269531 242.765625 233.226562 C 244.492188 233.53125 247.007812 233.898438 250.042969 234.109375 C 257.03125 234.59375 262.09375 233.269531 262.09375 233.269531 C 258.359375 233.691406 254.058594 233.457031 250.101562 233.191406 C 244.371094 232.8125 240.5 231.828125 240.464844 231.820312 L 240.453125 231.863281 C 240.089844 231.683594 239.714844 231.515625 239.320312 231.359375 C 240.835938 231.210938 242.792969 230.8125 245.070312 229.875 C 245.683594 229.621094 246.214844 229.398438 246.699219 229.191406 C 248.121094 228.761719 252.007812 227.910156 258.765625 228.644531 L 266.753906 229.601562 C 269.679688 229.980469 271.445312 230.207031 274.15625 230.3125 C 275.90625 230.378906 277.347656 230.132812 278.484375 229.796875 C 275.582031 232.09375 270.074219 235.632812 262.722656 236.636719 C 255.859375 237.570312 252.304688 237.339844 250.597656 237.035156 Z M 240.417969 243.882812 L 240.414062 243.890625 C 238.617188 243.007812 236.589844 242.171875 234.445312 241.574219 C 235.746094 241.441406 236.433594 241.511719 236.445312 241.511719 L 236.941406 241.566406 L 236.953125 241.070312 C 236.960938 240.949219 236.933594 240.324219 236.234375 239.550781 C 237.5 239.609375 239.71875 239.726562 242.097656 239.914062 C 245.191406 240.15625 248.101562 240.046875 249.78125 240.367188 C 249.78125 240.367188 245.296875 239.242188 242.171875 238.996094 C 239.1875 238.761719 236.085938 238.617188 235.03125 238.570312 C 234.695312 238.363281 234.300781 238.152344 233.839844 237.949219 C 235.554688 237.792969 238.300781 237.453125 239.835938 236.828125 C 241.027344 236.339844 242.671875 236.378906 243.871094 236.5 L 243.871094 236.515625 C 243.917969 236.515625 243.96875 236.519531 244.019531 236.519531 C 244.835938 236.609375 245.414062 236.734375 245.425781 236.734375 L 246.71875 237.019531 L 246.605469 236.882812 C 248.445312 237.304688 250.867188 238.066406 254.011719 239.078125 C 257.351562 240.152344 260.003906 241.800781 261.367188 242.742188 C 259.234375 242.890625 254.660156 243.261719 249.425781 244.046875 C 242.535156 245.085938 240.4375 243.894531 240.417969 243.882812 Z M 225.847656 247.03125 L 225.828125 247.0625 C 224.847656 246.101562 223.503906 245.058594 221.71875 244.210938 C 223.121094 244.410156 225.320312 244.726562 227.609375 245.105469 C 230.917969 245.652344 235.605469 246.285156 235.605469 246.285156 C 233.820312 245.824219 231.058594 245.03125 227.792969 244.492188 C 225.992188 244.191406 224.210938 243.894531 222.828125 243.667969 C 226.574219 243.269531 229.621094 242.550781 230.800781 242.246094 C 231.261719 242.128906 231.695312 242.027344 232.101562 241.945312 L 232.097656 241.96875 C 238.257812 243.125 243.988281 246.863281 246.101562 248.363281 C 244.128906 248.667969 239.632812 249.238281 234.96875 248.984375 C 228.84375 248.652344 225.878906 247.046875 225.847656 247.03125 Z M 205.960938 246.886719 C 205.800781 246.148438 205.445312 245.566406 204.988281 245.140625 C 206.238281 245.53125 207.820312 245.824219 209.464844 245.609375 C 209.65625 245.582031 209.839844 245.550781 210.027344 245.519531 C 210.246094 245.625 211.21875 246.046875 212.941406 246.484375 C 214.304688 246.832031 216.390625 247.144531 218.003906 246.742188 C 218.003906 246.742188 214.3125 246.117188 213.019531 245.789062 C 212.335938 245.613281 211.8125 245.421875 211.421875 245.246094 C 212.921875 244.890625 214.257812 244.390625 215.542969 243.875 C 216.410156 243.925781 217.277344 243.945312 218.136719 243.941406 C 222.746094 245.011719 225.355469 247.71875 226.484375 249.207031 C 225.914062 249.074219 225.167969 248.945312 224.222656 248.871094 C 222.976562 248.773438 222.277344 248.816406 220.882812 248.902344 C 219.667969 248.976562 218.007812 249.078125 215.027344 249.15625 C 209.457031 249.304688 206.53125 247.316406 205.960938 246.886719 Z M 196.53125 247.476562 C 196.53125 247.199219 196.554688 246.917969 196.605469 246.632812 C 196.988281 244.453125 198.78125 242.578125 201.519531 241.484375 C 207.074219 239.265625 214.675781 236.226562 220.890625 226.832031 C 224.976562 220.648438 225.570312 213.363281 225.960938 208.542969 C 226.152344 206.179688 226.304688 204.3125 226.773438 203.480469 C 227.335938 202.480469 228.789062 200.988281 230.632812 199.09375 C 233.625 196.011719 237.730469 191.792969 240.574219 186.941406 C 244.078125 180.960938 246.847656 172.988281 247.9375 169.648438 C 248.136719 170.71875 248.339844 172.300781 248.339844 174.316406 C 248.339844 176.960938 247.988281 180.332031 246.8125 184.21875 C 246.386719 185.625 245.785156 187.046875 245.078125 188.457031 C 245.058594 188.476562 245.042969 188.492188 245.039062 188.496094 L 245.050781 188.507812 C 242.542969 193.492188 238.644531 198.316406 235.851562 201.769531 C 233.796875 204.308594 232.4375 205.988281 232.195312 206.929688 L 231.855469 208.699219 C 231.265625 212.058594 230.117188 218.5625 227 224.679688 C 226.996094 224.679688 226.996094 224.679688 226.992188 224.679688 L 226.996094 224.683594 C 225.648438 227.328125 223.933594 229.902344 221.730469 232.113281 C 216.671875 237.199219 210.871094 239.636719 206.636719 241.417969 C 203.597656 242.691406 201.40625 243.613281 200.675781 244.996094 C 200.675781 244.996094 200.710938 245.015625 200.714844 245.015625 C 200.421875 245.3125 200.1875 245.660156 200.09375 246.09375 C 200.027344 246.40625 199.992188 246.699219 199.992188 246.972656 C 199.992188 247.527344 200.136719 247.988281 200.414062 248.351562 C 200.921875 249.003906 202.125 248.726562 202.125 248.726562 C 202.109375 248.722656 201.386719 248.109375 201.136719 247.78125 C 200.902344 247.46875 200.851562 246.953125 200.996094 246.285156 C 201.183594 245.398438 202.128906 245.085938 202.929688 245.167969 C 203.953125 245.277344 205.148438 246.039062 205.148438 247.835938 C 205.148438 249.347656 204.164062 250.726562 202.582031 251.433594 C 201.316406 252 199.460938 252.15625 198.050781 250.898438 C 197.070312 250.027344 196.53125 248.789062 196.53125 247.476562 Z M 202.773438 244.242188 C 202.777344 244.242188 202.777344 244.238281 202.78125 244.238281 C 202.785156 244.238281 202.789062 244.242188 202.789062 244.242188 C 202.785156 244.242188 202.777344 244.242188 202.773438 244.242188 Z M 198.554688 248.550781 C 199.566406 250.734375 201.328125 249.347656 201.328125 249.347656 C 200.09375 249.726562 199.550781 248.585938 199.417969 248.226562 C 198.914062 246.890625 199.199219 244.285156 202.113281 242.96875 L 205.136719 241.644531 C 210.261719 239.433594 216.070312 236.929688 220.582031 232.339844 C 229.753906 223.015625 230.480469 210.214844 230.53125 207.746094 C 230.597656 204.734375 232.257812 203.148438 234.769531 200.746094 L 235.761719 199.789062 C 238.824219 196.808594 241.753906 191.636719 241.789062 191.589844 C 241.789062 191.589844 238.125 196.207031 235.121094 199.132812 L 234.132812 200.082031 C 231.550781 202.550781 229.683594 204.332031 229.613281 207.726562 C 229.5625 210.136719 228.851562 222.621094 219.925781 231.695312 C 215.539062 236.15625 210.066406 238.519531 204.773438 240.800781 L 201.734375 242.132812 C 198.621094 243.535156 197.628906 246.546875 198.554688 248.550781 Z M 305.78125 203.3125 C 305.777344 203.3125 305.777344 203.3125 305.773438 203.3125 C 305.792969 203.3125 305.796875 203.3125 305.78125 203.3125 Z M 305.78125 203.3125 " fill-opacity="1" fill-rule="nonzero"/></g><g clip-path="url(#958a084b1f)"><path fill="#000000" d="M 200.347656 134.101562 C 198.800781 138.511719 198.742188 144.117188 198.488281 149.4375 C 199.554688 150.085938 200.886719 150.097656 202.035156 150.28125 C 204.453125 150.671875 206.742188 151.109375 209.121094 151.796875 C 211.488281 152.484375 213.117188 153.355469 215.023438 154.496094 C 217.097656 155.734375 218.84375 156.738281 220.425781 158.539062 C 223.660156 157.421875 227.960938 154.820312 232.066406 156.6875 C 233.484375 158.191406 233.660156 159.933594 232.574219 161.910156 C 230.121094 163.675781 227.46875 165.242188 224.980469 166.96875 C 227.222656 178.328125 223.179688 189.105469 218.90625 196.800781 C 212.757812 207.875 204.621094 219.378906 196.632812 227.816406 C 197.082031 229.199219 198.515625 228.957031 200.007812 229.164062 C 201.34375 229.347656 202.683594 229.742188 203.550781 230.175781 C 203.839844 231.339844 203.894531 233.484375 203.214844 234.21875 C 202.148438 234.910156 201.121094 234.457031 200.007812 234.386719 C 195.660156 234.117188 190.960938 233.851562 186.171875 233.714844 C 183.546875 233.636719 181.046875 233.871094 178.242188 233.882812 C 175.402344 233.894531 172.289062 234.863281 170.3125 233.207031 C 170.105469 231.691406 170.082031 230.230469 170.820312 229.5 C 171.9375 228.390625 176.25 229.339844 177.570312 228.152344 C 177.621094 227.390625 176.847656 226.628906 176.386719 226.128906 C 175.828125 225.519531 175.210938 225.0625 174.699219 224.445312 C 173.675781 223.199219 172.683594 221.882812 171.664062 220.566406 C 168.253906 216.171875 164.898438 211.171875 162.046875 206.070312 C 161.246094 204.640625 160.277344 203.257812 159.515625 201.6875 C 159.148438 200.933594 158.886719 200.078125 158.503906 199.332031 C 157.261719 196.910156 156.328125 194.839844 155.128906 192.082031 C 153.320312 187.921875 151.628906 183.089844 150.910156 177.417969 C 150.394531 173.355469 150.082031 168.960938 151.417969 165.621094 C 148.761719 164.179688 144.4375 163.734375 143.148438 160.730469 C 141.464844 156.8125 144.511719 154.789062 148.042969 155.339844 C 148.953125 155.480469 150.710938 155.980469 151.753906 156.347656 C 153.652344 157.015625 155.816406 158.917969 156.648438 156.519531 C 158.214844 155.839844 159.308594 154.679688 160.527344 153.652344 C 165.582031 151.566406 171.304688 150.148438 177.90625 149.605469 C 178.28125 143.980469 178.109375 138.980469 176.726562 134.269531 C 173.75 133.4375 170.3125 132.984375 168.964844 130.898438 C 168.65625 130.421875 168.144531 129.183594 168.121094 128.371094 C 168.109375 128.050781 168.371094 126.507812 168.625 126.011719 C 170.484375 122.414062 178.816406 121.953125 184.824219 121.796875 C 189.972656 121.664062 196.234375 122.039062 201.191406 123.144531 C 204.234375 123.824219 206.832031 124.554688 207.9375 125.839844 C 209.054688 127.136719 209.007812 130.273438 207.9375 131.574219 C 207.320312 132.324219 205.707031 132.882812 204.566406 133.257812 C 203.257812 133.6875 201.769531 133.84375 200.347656 134.101562 Z M 202.539062 124.324219 C 198.769531 123.378906 193.417969 122.722656 188.871094 122.640625 C 187.371094 122.609375 186.082031 122.492188 184.824219 122.472656 C 181.480469 122.417969 178.535156 122.882812 175.882812 123.480469 C 174.238281 123.851562 172.410156 124.027344 171.496094 124.492188 C 170.304688 125.101562 169.3125 126.417969 168.964844 127.527344 C 170.589844 127.003906 172.027344 125.691406 174.023438 125.167969 C 175.929688 124.667969 178.695312 124.488281 181.28125 124.324219 C 188.285156 123.886719 195.597656 124.5625 201.1875 125.839844 C 203.964844 126.476562 206.519531 127.121094 208.105469 128.707031 C 208.296875 125.882812 205.042969 124.953125 202.539062 124.324219 Z M 207.601562 130.222656 C 207.679688 129.34375 206.042969 127.871094 205.238281 127.527344 C 202.023438 126.15625 195.789062 125.777344 190.054688 125.335938 C 187.136719 125.113281 183.839844 125.054688 181.28125 125.167969 C 178.734375 125.28125 175.683594 125.769531 173.6875 126.347656 C 172.121094 126.800781 171.515625 126.929688 170.480469 127.863281 C 167.867188 130.234375 171.453125 131.863281 173.519531 132.582031 C 174.414062 132.894531 175.492188 133.082031 176.554688 133.089844 C 176.476562 131.757812 174.84375 130.585938 175.375 129.71875 C 177.316406 130.976562 177.558594 133.730469 178.074219 136.292969 C 178.246094 137.140625 178.65625 137.886719 178.75 138.820312 C 179.117188 142.550781 179.070312 145.824219 179.085938 149.4375 C 185.425781 149.074219 191.421875 149.09375 197.476562 149.605469 C 197.777344 145.453125 198.007812 141.144531 198.488281 136.796875 C 199.191406 135.664062 199.316406 133.855469 199.839844 132.414062 C 200.308594 131.125 201.058594 129.230469 202.203125 129.382812 C 201.644531 130.566406 200.820312 131.484375 200.515625 132.921875 C 202.78125 132.851562 207.429688 132.164062 207.601562 130.222656 Z M 192.585938 226.972656 C 193.652344 227.085938 194.929688 227.484375 195.621094 227.308594 C 196.253906 227.152344 198.117188 225.097656 199.164062 223.769531 C 200.40625 222.199219 201.453125 220.84375 202.371094 219.726562 C 207.148438 213.886719 210.203125 209.316406 214.179688 202.871094 C 215.554688 200.640625 216.84375 198.335938 218.0625 196.128906 C 218.496094 195.339844 219.238281 194.65625 219.582031 193.9375 C 219.894531 193.28125 219.917969 192.320312 220.253906 191.578125 C 220.585938 190.847656 220.96875 190.261719 221.265625 189.554688 C 223.875 183.386719 226.289062 173.332031 223.628906 165.789062 C 223.007812 164.027344 221.78125 161.359375 220.929688 160.226562 C 218.878906 157.5 215.625 155.511719 212.324219 154.160156 C 209.941406 153.183594 207.425781 152.273438 204.734375 151.628906 C 201.972656 150.972656 198.875 150.726562 195.789062 150.449219 C 192.507812 150.15625 188.5 149.875 185.835938 150.113281 C 181.503906 150.5 177.0625 150.511719 172.84375 151.292969 C 168.679688 152.066406 164.558594 152.859375 161.371094 154.496094 C 159.300781 155.558594 158.261719 157.117188 156.308594 158.371094 C 153.5625 161.75 151.757812 166.101562 151.417969 171.015625 C 150.996094 177.105469 152.359375 181.882812 153.777344 186.351562 C 154.117188 187.414062 154.550781 188.503906 154.960938 189.554688 C 157.394531 195.789062 160.335938 201.949219 163.734375 207.253906 C 164.3125 208.15625 164.84375 209.03125 165.421875 209.949219 C 165.972656 210.832031 166.695312 211.617188 167.277344 212.476562 C 168 213.550781 168.585938 215.003906 169.300781 215.847656 C 172.578125 219.714844 175.316406 224.3125 178.75 227.480469 C 183.855469 226.398438 188.046875 226.484375 192.585938 226.972656 Z M 143.992188 157.191406 C 143.28125 158.03125 143.734375 160.402344 144.328125 161.238281 C 145.558594 162.957031 149.578125 163.800781 151.417969 164.777344 C 151.917969 163.929688 152.515625 163.175781 152.429688 161.742188 C 150.761719 161.566406 148.582031 159.398438 146.859375 159.71875 C 146.132812 159.855469 146.011719 160.464844 145.34375 160.898438 C 144.972656 157.832031 148.023438 159.09375 149.898438 159.890625 C 151.132812 160.410156 152.25 161.109375 153.273438 161.070312 C 153.917969 160.308594 154.464844 159.449219 154.960938 158.539062 C 152.28125 157.980469 146.304688 154.464844 143.992188 157.191406 Z M 232.066406 157.867188 C 228.703125 155.546875 224.457031 158.195312 221.097656 159.214844 C 221.746094 160.140625 222.230469 161.230469 223.125 161.910156 C 224.449219 161.910156 230.882812 157.210938 230.882812 160.730469 C 228.292969 159.441406 225.96875 162.171875 223.460938 162.585938 C 223.75 163.8125 224.222656 164.859375 224.640625 165.957031 C 227.175781 164.082031 233.714844 162.527344 232.066406 157.867188 Z M 192.585938 227.816406 C 187.820312 227.4375 181.511719 227.074219 178.582031 228.65625 C 184.503906 228.292969 190.957031 228.699219 196.464844 228.828125 C 195.484375 228.164062 194.03125 227.929688 192.585938 227.816406 Z M 196.804688 229.839844 C 194.691406 229.785156 192.453125 229.429688 190.222656 229.332031 C 187.199219 229.199219 183.410156 229.382812 180.941406 229.5 C 177.503906 229.664062 174.007812 229.207031 171.15625 230.34375 C 171.058594 231.621094 170.976562 232.308594 171.496094 233.207031 C 173.679688 233.863281 175.90625 232.941406 178.242188 232.871094 C 186.230469 232.628906 194.921875 233.347656 202.707031 233.546875 C 202.980469 232.972656 202.980469 231.421875 202.707031 230.847656 C 201.070312 229.917969 198.964844 229.890625 196.804688 229.839844 Z M 196.804688 229.839844 " fill-opacity="1" fill-rule="evenodd"/></g><g fill="#000000" fill-opacity="1"><g transform="translate(124.378122, 265.942571)"><g><path d="M 10.15625 -0.859375 C 9.78125 -0.617188 9.304688 -0.394531 8.734375 -0.1875 C 8.171875 0.0195312 7.550781 0.125 6.875 0.125 C 5.695312 0.125 4.65625 -0.132812 3.75 -0.65625 C 2.851562 -1.175781 2.160156 -1.878906 1.671875 -2.765625 C 1.179688 -3.648438 0.9375 -4.628906 0.9375 -5.703125 C 0.9375 -6.835938 1.179688 -7.859375 1.671875 -8.765625 C 2.171875 -9.679688 2.851562 -10.398438 3.71875 -10.921875 C 4.59375 -11.441406 5.578125 -11.703125 6.671875 -11.703125 C 7.316406 -11.703125 7.921875 -11.613281 8.484375 -11.4375 C 9.054688 -11.269531 9.566406 -11.046875 10.015625 -10.765625 L 9.390625 -9.3125 C 8.503906 -9.90625 7.613281 -10.203125 6.71875 -10.203125 C 5.96875 -10.203125 5.273438 -10.003906 4.640625 -9.609375 C 4.015625 -9.222656 3.507812 -8.6875 3.125 -8 C 2.75 -7.320312 2.5625 -6.582031 2.5625 -5.78125 C 2.5625 -4.945312 2.734375 -4.191406 3.078125 -3.515625 C 3.421875 -2.847656 3.914062 -2.320312 4.5625 -1.9375 C 5.207031 -1.5625 5.953125 -1.375 6.796875 -1.375 C 7.835938 -1.375 8.738281 -1.664062 9.5 -2.25 Z M 10.15625 -0.859375 "/></g></g></g><g fill="#000000" fill-opacity="1"><g transform="translate(135.479451, 265.942571)"><g><path d="M 4.40625 -1.125 C 4.957031 -1.125 5.492188 -1.316406 6.015625 -1.703125 L 6.703125 -0.59375 C 6.347656 -0.351562 5.960938 -0.164062 5.546875 -0.03125 C 5.140625 0.09375 4.75 0.15625 4.375 0.15625 C 3.632812 0.15625 2.988281 0.00390625 2.4375 -0.296875 C 1.882812 -0.597656 1.457031 -1.015625 1.15625 -1.546875 C 0.863281 -2.085938 0.71875 -2.691406 0.71875 -3.359375 C 0.71875 -4.015625 0.878906 -4.609375 1.203125 -5.140625 C 1.535156 -5.679688 1.984375 -6.109375 2.546875 -6.421875 C 3.109375 -6.734375 3.726562 -6.890625 4.40625 -6.890625 C 5.269531 -6.890625 5.988281 -6.632812 6.5625 -6.125 C 7.144531 -5.625 7.546875 -4.921875 7.765625 -4.015625 L 2.515625 -2.171875 C 2.703125 -1.847656 2.957031 -1.59375 3.28125 -1.40625 C 3.613281 -1.21875 3.988281 -1.125 4.40625 -1.125 Z M 4.28125 -5.71875 C 3.675781 -5.71875 3.175781 -5.503906 2.78125 -5.078125 C 2.382812 -4.648438 2.1875 -4.101562 2.1875 -3.4375 C 2.1875 -3.28125 2.191406 -3.160156 2.203125 -3.078125 L 6.0625 -4.5 C 5.90625 -4.863281 5.675781 -5.15625 5.375 -5.375 C 5.082031 -5.601562 4.71875 -5.71875 4.28125 -5.71875 Z M 4.28125 -5.71875 "/></g></g></g><g fill="#000000" fill-opacity="1"><g transform="translate(143.797451, 265.942571)"><g><path d="M 2.734375 -5.0625 C 2.898438 -5.414062 3.140625 -5.734375 3.453125 -6.015625 C 3.773438 -6.296875 4.109375 -6.507812 4.453125 -6.65625 C 4.804688 -6.800781 5.117188 -6.878906 5.390625 -6.890625 L 5.328125 -5.40625 C 4.847656 -5.425781 4.410156 -5.328125 4.015625 -5.109375 C 3.628906 -4.898438 3.328125 -4.601562 3.109375 -4.21875 C 2.890625 -3.84375 2.78125 -3.445312 2.78125 -3.03125 L 2.78125 0 L 1.296875 0 L 1.296875 -6.625 L 2.625 -6.625 Z M 2.734375 -5.0625 "/></g></g></g><g fill="#000000" fill-opacity="1"><g transform="translate(149.812008, 265.942571)"><g><path d="M 8.09375 -6.625 L 8.09375 0 L 6.609375 0 L 6.609375 -1.09375 C 6.367188 -0.78125 6.023438 -0.492188 5.578125 -0.234375 C 5.128906 0.0234375 4.625 0.15625 4.0625 0.15625 C 3.4375 0.15625 2.867188 0.0195312 2.359375 -0.25 C 1.847656 -0.519531 1.445312 -0.914062 1.15625 -1.4375 C 0.863281 -1.957031 0.71875 -2.582031 0.71875 -3.3125 C 0.71875 -4.039062 0.867188 -4.671875 1.171875 -5.203125 C 1.472656 -5.742188 1.882812 -6.160156 2.40625 -6.453125 C 2.925781 -6.742188 3.5 -6.890625 4.125 -6.890625 C 4.6875 -6.890625 5.175781 -6.765625 5.59375 -6.515625 C 6.007812 -6.273438 6.347656 -5.957031 6.609375 -5.5625 L 6.71875 -6.625 Z M 4.46875 -1.078125 C 5.007812 -1.078125 5.472656 -1.226562 5.859375 -1.53125 C 6.253906 -1.832031 6.503906 -2.242188 6.609375 -2.765625 L 6.609375 -4.078125 C 6.484375 -4.546875 6.21875 -4.925781 5.8125 -5.21875 C 5.40625 -5.507812 4.941406 -5.65625 4.421875 -5.65625 C 4.023438 -5.65625 3.65625 -5.5625 3.3125 -5.375 C 2.976562 -5.1875 2.710938 -4.914062 2.515625 -4.5625 C 2.316406 -4.21875 2.21875 -3.828125 2.21875 -3.390625 C 2.21875 -2.960938 2.316406 -2.570312 2.515625 -2.21875 C 2.722656 -1.875 3 -1.597656 3.34375 -1.390625 C 3.6875 -1.179688 4.0625 -1.078125 4.46875 -1.078125 Z M 4.46875 -1.078125 "/></g></g></g><g fill="#000000" fill-opacity="1"><g transform="translate(159.201747, 265.942571)"><g><path d="M 9.796875 -6.890625 C 10.429688 -6.890625 10.9375 -6.707031 11.3125 -6.34375 C 11.695312 -5.988281 11.898438 -5.507812 11.921875 -4.90625 L 11.921875 0 L 10.4375 0 L 10.4375 -4.375 C 10.40625 -5.144531 10.050781 -5.550781 9.375 -5.59375 C 8.988281 -5.59375 8.644531 -5.476562 8.34375 -5.25 C 8.039062 -5.019531 7.800781 -4.71875 7.625 -4.34375 C 7.457031 -3.976562 7.367188 -3.582031 7.359375 -3.15625 L 7.359375 0 L 5.859375 0 L 5.859375 -4.375 C 5.828125 -5.144531 5.460938 -5.550781 4.765625 -5.59375 C 4.390625 -5.59375 4.050781 -5.476562 3.75 -5.25 C 3.445312 -5.019531 3.207031 -4.71875 3.03125 -4.34375 C 2.863281 -3.96875 2.78125 -3.566406 2.78125 -3.140625 L 2.78125 0 L 1.296875 0 L 1.296875 -6.625 L 2.640625 -6.625 L 2.75 -5.375 C 3.007812 -5.851562 3.359375 -6.222656 3.796875 -6.484375 C 4.242188 -6.753906 4.75 -6.890625 5.3125 -6.890625 C 5.84375 -6.890625 6.289062 -6.765625 6.65625 -6.515625 C 7.019531 -6.265625 7.253906 -5.921875 7.359375 -5.484375 C 7.640625 -5.921875 7.992188 -6.265625 8.421875 -6.515625 C 8.847656 -6.765625 9.304688 -6.890625 9.796875 -6.890625 Z M 9.796875 -6.890625 "/></g></g></g><g fill="#000000" fill-opacity="1"><g transform="translate(172.398581, 265.942571)"><g><path d="M 2.78125 -6.625 L 2.78125 0 L 1.296875 0 L 1.296875 -6.625 Z M 1.1875 -9.015625 C 1.1875 -9.242188 1.273438 -9.4375 1.453125 -9.59375 C 1.640625 -9.757812 1.851562 -9.84375 2.09375 -9.84375 C 2.320312 -9.84375 2.523438 -9.757812 2.703125 -9.59375 C 2.878906 -9.4375 2.96875 -9.242188 2.96875 -9.015625 C 2.96875 -8.773438 2.878906 -8.570312 2.703125 -8.40625 C 2.523438 -8.25 2.320312 -8.171875 2.09375 -8.171875 C 1.851562 -8.171875 1.640625 -8.25 1.453125 -8.40625 C 1.273438 -8.570312 1.1875 -8.773438 1.1875 -9.015625 Z M 1.1875 -9.015625 "/></g></g></g><g fill="#000000" fill-opacity="1"><g transform="translate(176.477598, 265.942571)"><g><path d="M 6.671875 -0.625 C 6.367188 -0.375 6.007812 -0.179688 5.59375 -0.046875 C 5.1875 0.0859375 4.773438 0.15625 4.359375 0.15625 C 3.640625 0.15625 3.003906 0.015625 2.453125 -0.265625 C 1.898438 -0.554688 1.472656 -0.960938 1.171875 -1.484375 C 0.867188 -2.015625 0.71875 -2.628906 0.71875 -3.328125 C 0.71875 -4.015625 0.878906 -4.617188 1.203125 -5.140625 C 1.523438 -5.671875 1.953125 -6.078125 2.484375 -6.359375 C 3.015625 -6.648438 3.585938 -6.796875 4.203125 -6.796875 C 5.222656 -6.796875 6.0625 -6.519531 6.71875 -5.96875 L 5.96875 -4.984375 C 5.75 -5.148438 5.5 -5.285156 5.21875 -5.390625 C 4.945312 -5.503906 4.65625 -5.5625 4.34375 -5.5625 C 3.945312 -5.5625 3.582031 -5.460938 3.25 -5.265625 C 2.925781 -5.066406 2.671875 -4.796875 2.484375 -4.453125 C 2.296875 -4.117188 2.203125 -3.742188 2.203125 -3.328125 C 2.203125 -2.910156 2.300781 -2.53125 2.5 -2.1875 C 2.695312 -1.851562 2.96875 -1.582031 3.3125 -1.375 C 3.65625 -1.175781 4.046875 -1.078125 4.484375 -1.078125 C 5.023438 -1.078125 5.5 -1.234375 5.90625 -1.546875 Z M 6.671875 -0.625 "/></g></g></g><g fill="#000000" fill-opacity="1"><g transform="translate(183.771844, 265.942571)"><g><path d="M 3.171875 0.140625 C 2.679688 0.140625 2.210938 0.0546875 1.765625 -0.109375 C 1.328125 -0.285156 0.96875 -0.535156 0.6875 -0.859375 L 1.328125 -1.734375 C 1.597656 -1.472656 1.878906 -1.269531 2.171875 -1.125 C 2.460938 -0.988281 2.753906 -0.921875 3.046875 -0.921875 C 3.390625 -0.921875 3.671875 -0.988281 3.890625 -1.125 C 4.117188 -1.269531 4.234375 -1.488281 4.234375 -1.78125 C 4.234375 -2 4.164062 -2.175781 4.03125 -2.3125 C 3.894531 -2.457031 3.738281 -2.5625 3.5625 -2.625 C 3.382812 -2.6875 3.085938 -2.78125 2.671875 -2.90625 C 1.535156 -3.269531 0.96875 -3.914062 0.96875 -4.84375 C 0.96875 -5.40625 1.171875 -5.878906 1.578125 -6.265625 C 1.992188 -6.660156 2.570312 -6.859375 3.3125 -6.859375 C 3.78125 -6.859375 4.195312 -6.800781 4.5625 -6.6875 C 4.925781 -6.570312 5.257812 -6.382812 5.5625 -6.125 L 4.96875 -5.21875 C 4.800781 -5.394531 4.585938 -5.535156 4.328125 -5.640625 C 4.066406 -5.753906 3.816406 -5.816406 3.578125 -5.828125 C 3.285156 -5.828125 3.03125 -5.753906 2.8125 -5.609375 C 2.601562 -5.460938 2.5 -5.269531 2.5 -5.03125 C 2.5 -4.820312 2.566406 -4.648438 2.703125 -4.515625 C 2.835938 -4.378906 2.976562 -4.28125 3.125 -4.21875 C 3.28125 -4.164062 3.578125 -4.070312 4.015625 -3.9375 C 4.554688 -3.75 4.976562 -3.507812 5.28125 -3.21875 C 5.59375 -2.9375 5.75 -2.550781 5.75 -2.0625 C 5.75 -1.425781 5.523438 -0.898438 5.078125 -0.484375 C 4.628906 -0.0664062 3.992188 0.140625 3.171875 0.140625 Z M 3.171875 0.140625 "/></g></g></g><g fill="#000000" fill-opacity="1"><g transform="translate(190.298272, 265.942571)"><g/></g></g><g fill="#000000" fill-opacity="1"><g transform="translate(195.353058, 265.942571)"><g><path d="M 10.828125 0 L 9.28125 0 L 9.28125 -5.078125 L 3.21875 -5.078125 L 3.21875 0 L 1.65625 0 L 1.65625 -11.5625 L 3.21875 -11.5625 L 3.21875 -6.5625 L 9.28125 -6.5625 L 9.28125 -11.5625 L 10.828125 -11.5625 Z M 10.828125 0 "/></g></g></g><g fill="#000000" fill-opacity="1"><g transform="translate(207.846057, 265.942571)"><g><path d="M 4.40625 -1.125 C 4.957031 -1.125 5.492188 -1.316406 6.015625 -1.703125 L 6.703125 -0.59375 C 6.347656 -0.351562 5.960938 -0.164062 5.546875 -0.03125 C 5.140625 0.09375 4.75 0.15625 4.375 0.15625 C 3.632812 0.15625 2.988281 0.00390625 2.4375 -0.296875 C 1.882812 -0.597656 1.457031 -1.015625 1.15625 -1.546875 C 0.863281 -2.085938 0.71875 -2.691406 0.71875 -3.359375 C 0.71875 -4.015625 0.878906 -4.609375 1.203125 -5.140625 C 1.535156 -5.679688 1.984375 -6.109375 2.546875 -6.421875 C 3.109375 -6.734375 3.726562 -6.890625 4.40625 -6.890625 C 5.269531 -6.890625 5.988281 -6.632812 6.5625 -6.125 C 7.144531 -5.625 7.546875 -4.921875 7.765625 -4.015625 L 2.515625 -2.171875 C 2.703125 -1.847656 2.957031 -1.59375 3.28125 -1.40625 C 3.613281 -1.21875 3.988281 -1.125 4.40625 -1.125 Z M 4.28125 -5.71875 C 3.675781 -5.71875 3.175781 -5.503906 2.78125 -5.078125 C 2.382812 -4.648438 2.1875 -4.101562 2.1875 -3.4375 C 2.1875 -3.28125 2.191406 -3.160156 2.203125 -3.078125 L 6.0625 -4.5 C 5.90625 -4.863281 5.675781 -5.15625 5.375 -5.375 C 5.082031 -5.601562 4.71875 -5.71875 4.28125 -5.71875 Z M 4.28125 -5.71875 "/></g></g></g><g fill="#000000" fill-opacity="1"><g transform="translate(216.164058, 265.942571)"><g><path d="M 8.09375 -6.625 L 8.09375 0 L 6.609375 0 L 6.609375 -1.09375 C 6.367188 -0.78125 6.023438 -0.492188 5.578125 -0.234375 C 5.128906 0.0234375 4.625 0.15625 4.0625 0.15625 C 3.4375 0.15625 2.867188 0.0195312 2.359375 -0.25 C 1.847656 -0.519531 1.445312 -0.914062 1.15625 -1.4375 C 0.863281 -1.957031 0.71875 -2.582031 0.71875 -3.3125 C 0.71875 -4.039062 0.867188 -4.671875 1.171875 -5.203125 C 1.472656 -5.742188 1.882812 -6.160156 2.40625 -6.453125 C 2.925781 -6.742188 3.5 -6.890625 4.125 -6.890625 C 4.6875 -6.890625 5.175781 -6.765625 5.59375 -6.515625 C 6.007812 -6.273438 6.347656 -5.957031 6.609375 -5.5625 L 6.71875 -6.625 Z M 4.46875 -1.078125 C 5.007812 -1.078125 5.472656 -1.226562 5.859375 -1.53125 C 6.253906 -1.832031 6.503906 -2.242188 6.609375 -2.765625 L 6.609375 -4.078125 C 6.484375 -4.546875 6.21875 -4.925781 5.8125 -5.21875 C 5.40625 -5.507812 4.941406 -5.65625 4.421875 -5.65625 C 4.023438 -5.65625 3.65625 -5.5625 3.3125 -5.375 C 2.976562 -5.1875 2.710938 -4.914062 2.515625 -4.5625 C 2.316406 -4.21875 2.21875 -3.828125 2.21875 -3.390625 C 2.21875 -2.960938 2.316406 -2.570312 2.515625 -2.21875 C 2.722656 -1.875 3 -1.597656 3.34375 -1.390625 C 3.6875 -1.179688 4.0625 -1.078125 4.46875 -1.078125 Z M 4.46875 -1.078125 "/></g></g></g><g fill="#000000" fill-opacity="1"><g transform="translate(225.553797, 265.942571)"><g><path d="M 7.59375 -6.625 L 4.0625 0.1875 L 3.984375 0.1875 L 0.296875 -6.625 L 2.078125 -6.625 L 4.078125 -2.40625 L 5.9375 -6.625 Z M 7.59375 -6.625 "/></g></g></g><g fill="#000000" fill-opacity="1"><g transform="translate(233.455896, 265.942571)"><g><path d="M 4.40625 -1.125 C 4.957031 -1.125 5.492188 -1.316406 6.015625 -1.703125 L 6.703125 -0.59375 C 6.347656 -0.351562 5.960938 -0.164062 5.546875 -0.03125 C 5.140625 0.09375 4.75 0.15625 4.375 0.15625 C 3.632812 0.15625 2.988281 0.00390625 2.4375 -0.296875 C 1.882812 -0.597656 1.457031 -1.015625 1.15625 -1.546875 C 0.863281 -2.085938 0.71875 -2.691406 0.71875 -3.359375 C 0.71875 -4.015625 0.878906 -4.609375 1.203125 -5.140625 C 1.535156 -5.679688 1.984375 -6.109375 2.546875 -6.421875 C 3.109375 -6.734375 3.726562 -6.890625 4.40625 -6.890625 C 5.269531 -6.890625 5.988281 -6.632812 6.5625 -6.125 C 7.144531 -5.625 7.546875 -4.921875 7.765625 -4.015625 L 2.515625 -2.171875 C 2.703125 -1.847656 2.957031 -1.59375 3.28125 -1.40625 C 3.613281 -1.21875 3.988281 -1.125 4.40625 -1.125 Z M 4.28125 -5.71875 C 3.675781 -5.71875 3.175781 -5.503906 2.78125 -5.078125 C 2.382812 -4.648438 2.1875 -4.101562 2.1875 -3.4375 C 2.1875 -3.28125 2.191406 -3.160156 2.203125 -3.078125 L 6.0625 -4.5 C 5.90625 -4.863281 5.675781 -5.15625 5.375 -5.375 C 5.082031 -5.601562 4.71875 -5.71875 4.28125 -5.71875 Z M 4.28125 -5.71875 "/></g></g></g><g fill="#000000" fill-opacity="1"><g transform="translate(241.773896, 265.942571)"><g><path d="M 5.40625 -6.875 C 6.03125 -6.875 6.539062 -6.691406 6.9375 -6.328125 C 7.34375 -5.960938 7.550781 -5.484375 7.5625 -4.890625 L 7.5625 0 L 6.0625 0 L 6.0625 -4.390625 C 6.039062 -4.753906 5.925781 -5.039062 5.71875 -5.25 C 5.519531 -5.46875 5.21875 -5.582031 4.8125 -5.59375 C 4.226562 -5.59375 3.742188 -5.359375 3.359375 -4.890625 C 2.972656 -4.421875 2.78125 -3.828125 2.78125 -3.109375 L 2.78125 0 L 1.296875 0 L 1.296875 -6.625 L 2.640625 -6.625 L 2.734375 -5.34375 C 2.972656 -5.820312 3.328125 -6.195312 3.796875 -6.46875 C 4.265625 -6.738281 4.800781 -6.875 5.40625 -6.875 Z M 5.40625 -6.875 "/></g></g></g></svg>